<svg xmlns="http://www.w3.org/2000/svg" width="1024" height="1024" viewBox="0 0 1024 1024">
	<circle id="background" fill="#1891ff" cx="512" cy="512" r="480" stroke="#4f5564" stroke-width="64" />
	<rect id="badge" fill="#147fe1" x="467" y="8" width="90" height="50" rx="30" ry="30" stroke="#2e3648" stroke-width="10" />
	<g id="particle" fill="#147fe1" xmlns:xlink= "http://www.w3.org/1999/xlink">
		<defs>
			<polygon id="pentagon" points="0,-328 42,-358 26,-408 -26,-408 -40,-358"/>
		</defs>
		<use xlink:href="#pentagon" x="512" y="512"/>
		<use xlink:href="#pentagon" x="512" y="512" transform="rotate(45,512,512)"/>
		<use xlink:href="#pentagon" x="512" y="512" transform="rotate(90,512,512)"/>
		<use xlink:href="#pentagon" x="512" y="512" transform="rotate(135,512,512)"/>
		<use xlink:href="#pentagon" x="512" y="512" transform="rotate(180,512,512)"/>
		<use xlink:href="#pentagon" x="512" y="512" transform="rotate(225,512,512)"/>
		<use xlink:href="#pentagon" x="512" y="512" transform="rotate(270,512,512)"/>
		<use xlink:href="#pentagon" x="512" y="512" transform="rotate(315,512,512)"/>
	</g>
	<g id="needle" fill="#d1d1d5" stroke-width="16" stroke-linejoin="round">
		<polygon id="needle-point" stroke="#e5e5e5" points="740,184 480,480 284,840 544,544" />
		<circle id="nidle-center" stroke="#ffffff" cx="512" cy="512" r="96" />
	</g>
</svg>