<svg xmlns="http://www.w3.org/2000/svg" width="1024" height="1024">
	<g id="background" fill="#147fe1">
		<path fill="#4f5564" d="M1024 512A512 512 0 1 1 0 512a512 512 0 0 1 1024 0zm0 0"/>
		<path fill="#1891ff" d="M512 956a444 444 0 1 1 0-888 444 444 0 0 1 0 888zm0 0"/>
	</g>
	<g id="badge" fill="#147fe1">
		<path fill="#147fe1" d="M494.93 64.85a30.72 30.72 0 0 1 0-59.73h34.14a30.72 30.72 0 0 1 0 59.73zm0 0"/>
		<path fill="#2e3648" d="M529.07 8.54a25.6 25.6 0 1 1 0 51.2h-34.14a25.6 25.6 0 1 1 0-51.2h34.14m0-8.54h-34.14a34.13 34.13 0 1 0 0 68.27h34.14a34.13 34.13 0 1 0 0-68.27zm0 0"/>
	</g>
	<g id="particle" fill="#147fe1">
		<polygon points="512,181 553,152 538,102 486,102 471,152" />
		<polygon points="512,843 553,872 538,922 486,922 471,872" />
		<polygon points="278 278 287,227 241,205 205,241 227,287" />
		<polygon points="746,746 797,737 819,783 783,819 737,797" />
		<polygon points="181,512 152,471 102,486 102,538 152,553" />
		<polygon points="843,512 872,471 922,486 922,538 872,553" />
		<polygon points="278,746 227,737 205,783 241,819 287,797" />
		<polygon points="746,278 737,227 783,205 819,241 797,287" />
	</g>
	<g id="needle" fill="#d1d1d5" stroke-width="17.06667" stroke-linejoin="round">
		<g id="needle" fill="#d1d1d5" stroke="#e5e5e5">
			<path d="M577 510l-84-58-203 379zm0 0"/>
			<path d="M538 567l-84-58 287-321zm0 0"/>
		</g>
		<path fill="#d1d1d5" stroke="#fff" d="M597 512a85 85 0 1 1-170 0 85 85 0 0 1 170 0zm0 0"/>
	</g>
</svg>