<svg xmlns="http://www.w3.org/2000/svg" width="1024" height="1024" viewBox="0 0 1024 1024">
	<title>BuoyCompass</title>
	<circle id="background" fill="#445566" cx="512" cy="512" r="480" stroke="#2e3440" stroke-width="64"/>
	<path fill="none" stroke="#99FF99" stroke-width="16" stroke-linecap="round" stroke-dasharray="2048, 128"	stroke-dashoffset="1024" d="M 512 32 a 480 480 0 0 1 0 960 a 480 480 0 0 1 0 -960"/>
	<g id="particle" fill="#99FF99" stroke="#223344" stroke-width="16" stroke-linejoin="round" xmlns:xlink="http://www.w3.org/1999/xlink">
		<defs>
			<polygon id="pentagon" points="0,-328 42,-358 26,-408 -26,-408 -40,-358"/>
		</defs>
		<use xlink:href="#pentagon" x="512" y="512"/>
		<use xlink:href="#pentagon" x="512" y="512" transform="rotate(45,512,512)"/>
		<use xlink:href="#pentagon" x="512" y="512" transform="rotate(90,512,512)"/>
		<use xlink:href="#pentagon" x="512" y="512" transform="rotate(135,512,512)"/>
		<use xlink:href="#pentagon" x="512" y="512" transform="rotate(180,512,512)"/>
		<use xlink:href="#pentagon" x="512" y="512" transform="rotate(225,512,512)"/>
		<use xlink:href="#pentagon" x="512" y="512" transform="rotate(270,512,512)"/>
		<use xlink:href="#pentagon" x="512" y="512" transform="rotate(315,512,512)"/>
	</g>
	<g id="needle" fill="#99FF99" stroke="#223344" stroke-width="16" stroke-linejoin="round">
		<polygon id="needle-point" points="740,184 480,480 284,840 544,544"/>
		<circle id="needle-center" cx="512" cy="512" r="96"/>
	</g>
</svg>