<svg xmlns="http://www.w3.org/2000/svg" width="1024" height="1024" viewBox="0 0 1024 1024">
	<!--
	[Color Info]
		"background"	nord2 (#4c566a)
			L stroke	nord0 (#2e3440)
		"badge"			nord4 (#d8dee9)
			L stroke	nord1 (#3b4252)
		"particle"		nord1 (#3b4252)
		"needle"		nord0 (#2e3440)
			L "point"	nord0 (#2e3440)
			L "center"	nord0 (#2e3440)
	-->
	<circle id="background" fill="#4c566a" cx="512" cy="512" r="480" stroke="#2e3440" stroke-width="64"/>
	<rect id="badge" fill="#5e81ac" x="467" y="8" width="90" height="50" rx="30" ry="30" stroke="#3b4252" stroke-width="10"/>
	<g id="particle" fill="#3b4252" xmlns:xlink="http://www.w3.org/1999/xlink">
		<defs>
			<polygon id="pentagon" points="0,-328 42,-358 26,-408 -26,-408 -40,-358"/>
		</defs>
		<use xlink:href="#pentagon" x="512" y="512"/>
		<use xlink:href="#pentagon" x="512" y="512" transform="rotate(45,512,512)"/>
		<use xlink:href="#pentagon" x="512" y="512" transform="rotate(90,512,512)"/>
		<use xlink:href="#pentagon" x="512" y="512" transform="rotate(135,512,512)"/>
		<use xlink:href="#pentagon" x="512" y="512" transform="rotate(180,512,512)"/>
		<use xlink:href="#pentagon" x="512" y="512" transform="rotate(225,512,512)"/>
		<use xlink:href="#pentagon" x="512" y="512" transform="rotate(270,512,512)"/>
		<use xlink:href="#pentagon" x="512" y="512" transform="rotate(315,512,512)"/>
	</g>
	<g id="needle" fill="#2e3440" stroke-width="16" stroke-linejoin="round">
		<polygon id="needle-point" stroke="#2e3440" points="740,184 480,480 284,840 544,544"/>
		<circle id="needle-center" stroke="#3b4252" cx="512" cy="512" r="96"/>
	</g>
</svg>