<svg xmlns="http://www.w3.org/2000/svg" width="1024" height="1024">
	<path fill="#4f5564" d="M1024 512A512 512 0 1 1 0 512a512 512 0 0 1 1024 0zm0 0"/>
	<path fill="#1891ff" d="M512 956a444 444 0 1 1 0-888 444 444 0 0 1 0 888zm0 0"/>
	<path fill="#147fe1" d="M494.93 64.85a30.72 30.72 0 0 1 0-59.73h34.14a30.72 30.72 0 0 1 0 59.73zm0 0"/>
	<path fill="#2e3648" d="M529.07 8.54a25.6 25.6 0 1 1 0 51.2h-34.14a25.6 25.6 0 1 1 0-51.2h34.14m0-8.54h-34.14a34.13 34.13 0 1 0 0 68.27h34.14a34.13 34.13 0 1 0 0-68.27zm0 0"/>
	<path fill="#147fe1" d="M512 181l-41-29 15-50h52l15 50zm0 662l-41 29 15 50h52l15-50zM278 278l-51 9-22-46 36-36 46 22zm468 468l-9 51 46 22 36-36-22-46zM181 512l-29 41-50-15v-52l50-15zm662 0l29 41 50-15v-52l-50-15zM278 746l9 51-46 22-36-36 22-46zm468-468l51 9 22-46-36-36-46 22zm0 0"/>
	<path fill="#d1d1d5" stroke="#e5e5e5" stroke-linejoin="round" stroke-width="17.06667" d="M577 510l-84-58-203 379zm0 0"/>
	<path fill="#d1d1d5" d="M538 567l-84-58 287-321zm0 0"/>
	<path fill="#d1d1d5" stroke="#fff" stroke-miterlimit="10" stroke-width="17.06667" d="M597 512a85 85 0 1 1-170 0 85 85 0 0 1 170 0zm0 0"/>
</svg>