<svg xmlns="http://www.w3.org/2000/svg" width="1024" height="1024" viewBox="0 0 1024 1024">
	<!--
	[Color Info]
		"background"		nord0 (#2e3440)
		"board-border"		nord3 (#4c566a)
		"board-tile"		nord4 (#d8dee9)
		"chessman"			nord0 (#2e3440)
	-->
	<circle id="background" fill="#2e3440" cx="512" cy="512" r="512"/>
	<rect id="board-border" fill="none" x="172" y="172" width="668" height="668" rx="30" ry="30" stroke="#4c566a" stroke-width="52"/>
	<polygon id="board-tile" fill="#d8dee9" points="
		198,506 198,352 352,352 352,198 506,198 506,352
		660,352 660,198 814,198 814,352 660,352 660,506
		814,506 814,660 660,660 660,814 506,814 506,660
		660,660 660,506 506,506 506,352 352,352 352,506
		506,506 506,660 352,660 352,814 198,814 198,660
		352,660 352,506"/>
	<g id="chessman" fill="#2e3440">
		<circle cx="275" cy="737" r="36"/>
		<circle cx="429" cy="583" r="36"/>
		<circle cx="583" cy="737" r="36"/>
		<circle cx="737" cy="583" r="36"/>
	</g>
</svg>