<svg xmlns="http://www.w3.org/2000/svg" width="1024" height="1024">
	<circle id="background" fill="#25b7d3" cx="512" cy="512" r="512"/>
	<rect id="board-border" fill="none" x="156" y="156" width="708" height="708" rx="30" ry="30" stroke="#84462d" stroke-width="52"/>
	<rect id="board-background" fill="#ffffff" x="168" y="168" width="688" height="688"/>
	<g id="board-tile" fill="#3e3e3f">
		<polygon points="168,512 168,340 340,340 340,168 512,168 512,340 684,340 684,168 856,168 856,340 684,340 684,512 856,512 856,684 684,684 684,856 512,856 512,684 684,684 684,512 512,512 512,340 340,340 340,512 512,512 512,684 340,684 340,856 168,856 168,684 340,684 340,512"/>
		<polygon id="board-tile-Backlight" fill="#5b5c5f" points="168,512 512,168 340,168 340,340 168,340"/>
	</g>
	<g id="chessman" fill="#ffffff">
		<circle cx="254" cy="770" r="36"/>
		<circle cx="426" cy="598" r="36"/>
		<circle cx="598" cy="770" r="36"/>
		<circle cx="770" cy="598" r="36"/>
	</g>
</svg>