<svg xmlns="http://www.w3.org/2000/svg" width="1024" height="1024" viewBox="0 0 1024 1024">
	<circle id="background" fill="#dedeca" cx="512" cy="512" r="512"/>
	<path opacity="0.2" d="M672 784H352l-12-1 26-31h306l14-2 18 26c-10 5-21 8-32 8m-381-43l-3-21V400v288c0 15 5 29 14 40l-11 13"/>
	<path fill="#fffffe" d="M352 720c-18 0-32-14-32-32V368c0-18 14-32 32-32h320c18 0 32 14 32 32v320c0 18-14 32-32 32H352"/>
	<path fill="#4c5665" d="M672 304H352c-35 0-64 29-64 64v320c0 35 29 64 64 64h320c35 0 64-29 64-64V368c0-35-29-64-64-64zM352 688h320V368H352z"/>
	<path opacity="0.2" d="M752 822c-11 0-21-5-27-15l-21-31 14-11 7 10a32 32 0 0 0 55-1 32 32 0 0 1-28 48"/>
	<path opacity="0.4" d="M704 776l-18-26 18-6 14 21-14 11"/>
	<path fill="#cfcdc8" d="M663 688h-26c-35-41-72-80-111-117l15-17c44 42 85 86 122 134"/>
	<path opacity="0.2" d="M686 750l-49-62h26l41 56-18 6"/>
	<path opacity="0.2" d="M288 393c-37-22-61-34-62-34a32 32 0 0 1-13-45c3 5 7 10 13 13 1 0 25 12 62 34v32"/>
	<path fill="#cfcdc8" d="M478 529c-41-34-83-66-126-95v-32c49 33 97 70 142 109l-16 18"/>
	<path opacity="0.2" d="M352 434l-64-41v-25-7l64 41v32"/>
	<path fill="#b85756" d="M752 790c-11 0-21-5-27-15a1377 1377 0 0 0-499-448 32 32 0 1 1 28-58c13 6 326 159 525 472a32 32 0 0 1-27 49"/>
	<path opacity="0.2" d="M282 833a32 32 0 0 1-24-53l33-39c8 21 26 37 49 42l-34 39c-6 7-15 11-24 11"/>
	<path opacity="0.4" d="M340 783c-23-5-41-21-49-42l11-13c12 15 31 24 50 24h14l-26 31"/>
	<path fill="#cfcdc8" d="M422 688h-70v-17l126-142 48 42-104 117"/>
	<path opacity="0.2" d="M366 752h-14c-19 0-38-9-50-24l50-57v17h70l-56 64"/>
	<path opacity="0.2" d="M732 346c-8-22-27-37-49-41l36-38a32 32 0 1 1 46 44l-33 35"/>
	<path fill="#cfcdc8" d="M584 506l-47-43 87-95h48v42l-88 96"/>
	<path opacity="0.2" d="M672 410v-42h-48l59-63c22 4 41 19 49 41l-60 64"/>
	<path fill="#a9a7a4" d="M526 571l-48-42 16-18 47 43-15 17"/>
	<path opacity="0.2" d="M541 554l-47-43 43-48 47 43-43 48"/>
	<path fill="#b85756" d="M282 801a32 32 0 0 1-24-53c2-3 254-298 461-513a32 32 0 1 1 46 44C560 493 309 787 306 790c-6 7-15 11-24 11"/>
</svg>