<?xml version="1.0" encoding="UTF-8"?>
<!-- Generator: Adobe Illustrator 19.0.0, SVG Export Plug-In . SVG Version: 6.00 Build 0)  -->
<svg version="1.1" id="Layer_1" xmlns="http://www.w3.org/2000/svg" x="0px" y="0px" viewBox="0 0 473.935 473.935" style="enable-background:new 0 0 473.935 473.935;" xml:space="preserve">
	<circle style="fill:#357180;" cx="236.967" cy="236.967" r="236.967" />
	<g>
		<path style="fill:#6E5538;" d="M251.276,110.933c2.63,0.322,5.111,1.119,7.353,2.309" />
		<path style="fill:#6E5538;" d="M233.042,251.182c-3.768,0-6.814,3.368-6.814,7.506v164.373c0,4.146,3.046,7.51,6.814,7.51   c3.76,0,6.806-3.36,6.806-7.51V258.689C239.849,254.554,236.799,251.182,233.042,251.182z" />
	</g>
	<path style="fill:#8C8C8C;" d="M249.716,362.194c-1.085,0-2.163-0.468-2.9-1.373l-18.709-22.918c-1.31-1.605-1.07-3.963,0.531-5.265  c1.609-1.313,3.963-1.074,5.265,0.531l18.709,22.918c1.31,1.605,1.07,3.963-0.531,5.265  C251.381,361.917,250.543,362.194,249.716,362.194z" />
	<path style="fill:#F5DE57;" d="M274.726,366.71c3.573,3.955,10.417,7.293,10.417,7.293s-19.274,8.636-32.621,0.008  c-5.317-3.446-7.57-10.062-4.494-15.719c3.087-5.65,10.077-7.775,15.641-4.745C269.076,356.499,270.501,362.063,274.726,366.71z" />
	<g style="opacity:0.8;">
		<path style="fill:#FFFFFF;" d="M265.132,363.75c2.268,2.492,6.597,4.61,6.597,4.61s-12.209,5.474-20.666,0   c-3.364-2.178-4.793-6.376-2.844-9.953c1.949-3.577,6.395-4.924,9.908-3.012C261.558,357.266,262.453,360.798,265.132,363.75z" />
	</g>
	<path style="fill:#F8D648;" d="M269.895,330.067c0,11.723-73.107,11.723-73.107,0V131.98c0-11.719,9.504-21.223,21.223-21.223  h30.656c11.723,0,21.227,9.504,21.227,21.223L269.895,330.067L269.895,330.067z" />
	<g>
		<polygon style="fill:#F3C715;" points="269.895,174.334 196.788,247.441 196.788,268.608 269.895,195.501  " />
		<path style="fill:#F3C715;" d="M258.625,113.241c-2.241-1.19-4.722-1.987-7.353-2.309l-54.484,54.484v21.164l67.588-67.588   L258.625,113.241z" />
		<polygon style="fill:#F3C715;" points="269.895,214.023 196.788,287.13 196.788,308.293 269.895,235.186  " />
		<polygon style="fill:#F3C715;" points="269.895,132.007 196.788,205.114 196.788,226.277 269.895,153.17  " />
		<path style="fill:#F3C715;" d="M218.012,110.757c-11.719,0-21.223,9.504-21.223,21.223v12.273l33.497-33.496H218.012z" />
		<path style="fill:#F3C715;" d="M269.895,252.391l-73.107,73.107v4.572c0,2.758,4.079,4.861,10.271,6.32l62.836-62.836V252.391z" />
		<path style="fill:#F3C715;" d="M269.895,292.073l-46.488,46.488c6.941,0.423,14.391,0.389,21.261-0.094l25.227-25.227   L269.895,292.073L269.895,292.073z" />
	</g>
	<path style="fill:#C42126;" d="M272.002,97.627l-27.865-47.91c-6.133-8.501-16.071-8.501-22.196,0l-27.865,47.91  c-7.083,8.501-7.083,22.286,0,30.787h77.926C279.074,119.913,279.074,106.132,272.002,97.627z" />
	<path style="fill:#BB2025;" d="M233.342,43.345c-4.12-0.109-8.262,2.013-11.401,6.372l-27.865,47.91  c-7.083,8.501-7.083,22.286,0,30.787h39.266L233.342,43.345L233.342,43.345z" />
</svg>