<svg xmlns="http://www.w3.org/2000/svg" width="1024" height="1024" viewBox="0 0 1024 1024">
	<path fill="#357180" d="M1024 512A512 512 0 1 1 0 512a512 512 0 0 1 1024 0zm0 0"/>
	<path fill="#6e5538" d="M543 240c6 0 11 2 16 5M504 543c-9 0-15 7-15 16v355c0 9 6 16 15 16 8 0 14-7 14-16V559c0-9-6-16-14-16zm0 0"/>
	<path fill="#8c8c8c" d="M540 782c-3 0-5-1-7-3l-40-49a8 8 0 1 1 12-10l41 49a8 8 0 0 1-6 13zm0 0"/>
	<path fill="#f5de57" d="M594 792c7 9 22 16 22 16s-42 19-70 0c-12-7-17-22-10-34s22-17 34-10c11 6 14 18 24 28zm0 0"/>
	<path fill="#f8d648" d="M583 713c0 25-158 25-158 0V285c0-25 21-46 46-46h66c26 0 46 21 46 46zm0 0"/>
	<path fill="#f3c715" d="M583 377L425 535v45l158-158zm0 0M559 245c-5-3-10-5-16-5L425 357v46l146-146zm0 0M583 462L425 620v46l158-158zm0 0M583 285L425 443v46l158-158zm0 0M471 239c-25 0-46 21-46 46v27l73-73zm0 0M583 545L425 703v10c0 6 9 11 22 14l136-136zm0 0M583 631L483 731h46l54-54zm0 0"/>
	<path fill="#c42126" d="M588 211l-61-104c-13-18-34-18-47 0l-61 104a54 54 0 0 0 0 66h169c15-18 15-48 0-66zm0 0"/>
	<path fill="#bb2025" d="M504 94c-9-1-18 4-24 13l-61 104a54 54 0 0 0 0 66h85zm0 0"/>
</svg>