<svg xmlns="http://www.w3.org/2000/svg" width="1024" height="1024" viewBox="0 0 1024 1024">
	<circle id="background" fill="#e4e4e4" cx="512" cy="512" r="512"/>
	<g id="box">
		<polygon fill="#a48a47" points="530,485 530,790 255,675 255,370"/>
		<polygon fill="#b19353" points="530,485 810,370 530,255 255,370"/>
		<polygon fill="#93793d" points="530,485 810,370 810,675 530,790"/>
	</g>
	<g id="graph" fill="#6ec2cb">
		<path d="M531 799c17 0 12-23 12-33V186l33 28c10 7 23 0 20-11l-2-2-2-2-36-35c-7-6-13-15-22-18l-1-1c-2-1-4 0-5 1-8 3-14 10-20 16l-38 38c-9 8 2 20 12 17 5-1 25-21 29-25l8-6v580c0 10-5 33 12 33z"/>
		<path d="M517 791c7 16 27 3 36-1l334-138-14 41c-3 11 9 21 18 13l2-2 1-2 18-47c3-9 8-18 9-27v-2l-3-4c-6-6-15-8-23-12l-49-21c-11-5-18 9-12 18 4 4 30 15 35 17l8 5-333 138c-10 4-33 9-27 24z"/>
		<path d="M541 791c-7 16-27 3-36-1L171 652l14 41c3 11-9 21-18 13l-2-2-1-2-18-47c-3-9-8-18-9-27v-2l3-4c6-6 15-8 23-12l49-21c11-5 18 9 12 18-4 4-30 15-34 17l-9 5 333 138c10 4 33 9 27 24z"/>
		<path d="M570 771a40 40 0 1 1-80 0 40 40 0 0 1 80 0z"/>
	</g>
</svg>