<svg xmlns="http://www.w3.org/2000/svg" width="1024" height="1024" viewBox="0 0 1024 1024">
	<title>GeometryAPI</title>
	<circle id="background" fill="#445566" cx="512" cy="512" r="480" stroke="#2e3440" stroke-width="64"/>
	<path fill="none" stroke="#99FF99" stroke-width="16" stroke-linecap="round" stroke-dasharray="2048, 128"	stroke-dashoffset="1024" d="M 512 32 a 480 480 0 0 1 0 960 a 480 480 0 0 1 0 -960"/>
	<g id="box">
		<polygon fill="#334455" points="512,790 792,675 792,370 512,255 237,370 237,675"/>
		<polygon opacity="0.1" points="512,485 512,790 237,675 237,370"/>
		<polygon opacity="0.2" points="512,485 792,370 792,675 512,790"/>
	</g>
	<g id="graph" fill="#99FF99">
		<g id="arrow" fill="none" stroke="#99FF99" stroke-width="24" stroke-linejoin="round" stroke-linecap="round">
			<g id="arrow-y">
				<polyline id="arrow-y-shaft" points="512,780 512,160"/>
				<polyline id="arrow-y-head" points="452,220 512,160 572,220"/>
			</g>
			<g id="arrow-x">
				<polyline id="arrow-x-shaft" points="512,780 160,630"/>
				<polyline id="arrow-x-head" points="172,700 160,630 212,600"/>
			</g>
			<g id="arrow-z">
				<polyline id="arrow-z-shaft" points="512,780 910,630"/>
				<polyline id="arrow-z-head" points="862,700 910,630 822,600"/>
			</g>
		</g>
		<circle cx="512" cy="770" r="40"/>
	</g>
</svg>