<?xml version="1.0" encoding="UTF-8"?>
<!-- Generator: Adobe Illustrator 19.0.0, SVG Export Plug-In . SVG Version: 6.00 Build 0)  -->
<svg version="1.1" id="Layer_1" xmlns="http://www.w3.org/2000/svg" x="0px" y="0px" viewBox="0 0 473.935 473.935" style="enable-background:new 0 0 473.935 473.935;" xml:space="preserve">
	<circle style="fill:#E4E4E4;" cx="236.967" cy="236.967" r="236.967" />
	<polygon style="fill:#A48A47;" points="245.701,366.284 117.859,312.241 117.859,171.033 245.701,225.076 " />
	<polygon style="fill:#B19353;" points="373.55,171.033 245.708,116.987 117.859,171.033 245.701,225.076 " />
	<polygon style="fill:#93793D;" points="373.55,312.241 245.708,366.284 245.708,225.076 373.55,171.033 " />
	<g>
		<path style="fill:#6EC2CB;" d="M245.731,370.055c7.745,0,5.736-10.791,5.736-15.644c0-4.64,0-263.729,0-268.376   c2.638,2.215,12.468,11.192,15.222,13.238c4.385,3.252,10.544-0.052,8.924-5.16c-0.06-0.415-0.24-0.834-0.546-1.231   c-0.239-0.404-0.543-0.703-0.868-0.909c-3.214-3.083-13.586-12.954-16.801-16.041c-3.128-3.005-6.043-6.754-10.05-8.513   c-0.206-0.116-0.43-0.228-0.688-0.307c-0.681-0.228-1.658-0.079-2.324,0.344c-3.656,1.646-6.264,4.924-9.164,7.708   c-3.596,3.457-14.14,13.826-17.736,17.28c-4.157,3.996,0.935,9.377,5.658,8.15c2.354-0.621,11.6-10.021,13.418-11.502   c1.171-0.95,2.331-1.916,3.502-2.874c0,4.61,0,263.669,0,268.279C240.009,359.339,238.004,370.055,245.731,370.055z" />
		<path style="fill:#6EC2CB;" d="M239.43,366.314c2.952,7.154,12.161,1.182,16.647-0.67c4.288-1.77,150.117-62.278,154.409-64.044   c-1.036,3.289-5.59,15.794-6.432,19.117c-1.328,5.298,4.071,9.736,8.172,6.286c0.374-0.221,0.681-0.543,0.928-0.98   c0.284-0.382,0.453-0.767,0.513-1.156c1.631-4.142,6.795-17.489,8.427-21.642c1.587-4.037,3.933-8.165,4.034-12.539   c0.03-0.236,0.045-0.486,0.03-0.752c-0.052-0.711-0.561-1.564-1.205-2.009c-2.922-2.758-6.941-3.918-10.619-5.534   c-4.569-2.006-18.174-7.802-22.743-9.811c-5.276-2.324-8.311,4.445-5.373,8.337c1.471,1.942,13.68,6.904,15.749,8.019   c1.325,0.718,2.66,1.422,3.981,2.137c-4.262,1.762-150.053,62.256-154.319,64.018C247.156,356.929,236.485,359.17,239.43,366.314z" />
		<path style="fill:#6EC2CB;" d="M250.255,366.314c-2.952,7.154-12.161,1.182-16.64-0.67c-4.288-1.77-150.117-62.278-154.416-64.044   c1.036,3.289,5.59,15.794,6.432,19.117c1.336,5.298-4.071,9.736-8.172,6.286c-0.367-0.221-0.681-0.543-0.928-0.98   c-0.284-0.382-0.445-0.767-0.513-1.156c-1.624-4.142-6.795-17.489-8.419-21.642c-1.587-4.037-3.94-8.165-4.041-12.539   c-0.03-0.236-0.037-0.486-0.022-0.752c0.045-0.711,0.554-1.564,1.205-2.009c2.915-2.758,6.941-3.918,10.619-5.534   c4.561-2.006,18.174-7.802,22.735-9.811c5.283-2.324,8.318,4.445,5.373,8.337c-1.463,1.942-13.672,6.904-15.749,8.019   c-1.317,0.718-2.653,1.422-3.981,2.137c4.262,1.762,150.061,62.256,154.319,64.018C242.528,356.929,253.199,359.17,250.255,366.314   z" />
		<circle style="fill:#6EC2CB;" cx="245.274" cy="357.004" r="18.709" />
	</g>
</svg>