<svg xmlns="http://www.w3.org/2000/svg" width="1024" height="1024" viewBox="0 0 1024 1024">
	<circle id="background" fill="#e4e4e4" cx="512" cy="512" r="512"/>
	<g id="box">
		<polygon fill="#b19353" points="530,790 810,675 810,370 530,255 255,370 255,675"/>
		<polygon opacity="0.1" points="530,485 530,790 255,675 255,370"/>
		<polygon opacity="0.2" points="530,485 810,370 810,675 530,790"/>
	</g>
	<g id="graph" fill="#6ec2cb">
		<g id="arrow" fill="none" stroke="#6ec2cb" stroke-width="24" stroke-linejoin="round" stroke-linecap="round">
			<g id="arrow-y">
				<polyline id="arrow-y-shaft" points="530,780 530,160"/>
				<polyline id="arrow-y-head" points="470,220 530,160 590,220"/>
			</g>
			<g id="arrow-x">
				<polyline id="arrow-x-shaft" points="530,780 160,630"/>
				<polyline id="arrow-x-head" points="190,700 160,630 230,600"/>
			</g>
			<g id="arrow-z">
				<polyline id="arrow-z-shaft" points="530,780 910,630"/>
				<polyline id="arrow-z-head" points="880,700 910,630 840,600"/>
			</g>
		</g>
		<circle cx="530" cy="770" r="40"/>
	</g>
</svg>