<svg xmlns="http://www.w3.org/2000/svg" width="1024" height="1024" viewBox="0 0 1024 1024">
	<circle id="background" fill="#344e5d" cx="512" cy="512" r="512"/>
	<g id="ring" fill="none">
		<circle stroke="#d35959" stroke-width="50" cx="520" cy="520" r="305"/>
		<circle stroke="#d35959" stroke-width="35" cx="520" cy="520" r="220"/>
		<circle stroke="#cd4f4f" stroke-width="30" cx="520" cy="520" r="140"/>
	</g>
	<circle id="gold" fill="#c54342" cx="520" cy="520" r="56"/>
	<g id="arrow">
		<polygon id="arrow-feathering-1" fill="#c93435" points="680,365 815,230 895,250 760,380"/>
		<g id="arrow-shaft">
			<polygon fill="#e79e2d" points="530,540 500,540 500,500 800,205 830,210 835,240"/>
			<polygon fill="#f2be3e" points="830,210 500,540 500,500 800,205"/>
			<polygon fill="#f9ca62" points="830,210 800,205 805,235 835,240"/>
		</g>
		<polygon id="arrow-feathering-2" fill="#c93435" points="580,340 715,210 795,225 660,360"/>
	</g>
</svg>