<svg xmlns="http://www.w3.org/2000/svg" width="1024" height="1024" viewBox="0 0 1024 1024">
	<circle id="background" fill="#344e5d" cx="512" cy="512" r="512"/>
	<g id="ring" fill="none" stroke="#ffffff">
		<circle stroke="#d35959" stroke-width="50" cx="520" cy="520" r="305"/>
		<circle stroke="#d35959" stroke-width="35" cx="520" cy="520" r="220"/>
		<circle stroke="#cd4f4f" stroke-width="30" cx="520" cy="520" r="140"/>
	</g>
	<circle id="gold" fill="#c54342" cx="520" cy="520" r="56"/>
	<g id="arrow">
		<path fill="#c93435" d="M681.96 365.18l80.7 18.62 133.47-133.44-80.69-18.63zm0 0"/>
		<path fill="#e79e2d" d="M837.43 243.28l-8.1-30.98-30.97-8.08-298.3 298.23v39.06h39.06zm0 0"/>
		<path fill="#f2be3e" d="M829.33 212.3l-30.97-8.08-298.3 298.23v39.06zm0 0"/>
		<path fill="#f9ca62" d="M837.4 244.3l-32.46-7.8-7.63-32.27 32.44 7.82zm0 0"/>
		<path fill="#c93435" d="M580.91 342.27l80.7 18.62 133.47-133.44-80.7-18.62zm0 0"/>
	</g>
</svg>