<?xml version="1.0" encoding="UTF-8"?>
<!-- Generator: Adobe Illustrator 19.0.0, SVG Export Plug-In . SVG Version: 6.00 Build 0)  -->
<svg version="1.1" id="Layer_1" xmlns="http://www.w3.org/2000/svg" xmlns:xlink="http://www.w3.org/1999/xlink" x="0px" y="0px" viewBox="0 0 473.654 473.654" style="enable-background:new 0 0 473.654 473.654;" xml:space="preserve">
	<circle style="fill:#344E5D;" cx="236.827" cy="236.827" r="236.827" />
	<g>
		<path style="fill:#D35959;" d="M240.481,87.977c-83.654,0-151.468,67.817-151.468,151.468s67.813,151.468,151.468,151.468    c83.651,0,151.468-67.817,151.468-151.468S324.131,87.977,240.481,87.977z M240.481,368.475c-71.265,0-129.03-57.769-129.03-129.03    s57.765-129.03,129.03-129.03c71.261,0,129.03,57.769,129.03,129.03S311.742,368.475,240.481,368.475z" />
		<path style="fill:#D35959;" d="M240.481,130.982c-59.904,0-108.463,48.562-108.463,108.463s48.558,108.463,108.463,108.463    s108.463-48.562,108.463-108.463S300.385,130.982,240.481,130.982z M240.481,331.839c-51.03,0-92.397-41.367-92.397-92.394    s41.371-92.394,92.397-92.394s92.394,41.367,92.394,92.394S291.511,331.839,240.481,331.839z" />
	</g>
	<path style="fill:#CD4F4F;" d="M240.481,168.378c-39.251,0-71.067,31.82-71.067,71.067s31.816,71.067,71.067,71.067   c39.247,0,71.067-31.82,71.067-71.067S279.728,168.378,240.481,168.378z M240.481,296.245c-31.371,0-56.8-25.429-56.8-56.797   s25.433-56.797,56.8-56.797s56.797,25.429,56.797,56.797S271.852,296.245,240.481,296.245z" />
	<path style="fill:#C54342;" d="M240.481,263.24c-13.145,0-23.795-10.654-23.795-23.795c0-13.141,10.654-23.795,23.795-23.795   c13.141,0,23.791,10.654,23.791,23.795C264.272,252.586,253.622,263.24,240.481,263.24z" />
	<polygon style="fill:#C93435;" points="315.444,168.95 352.773,177.562 414.509,115.826 377.185,107.21 " />
	<polygon style="fill:#E79E2D;" points="387.353,112.55 383.609,98.22 369.283,94.48 231.3,232.456 231.3,250.525 249.373,250.525    " />
	<polygon style="fill:#F2BE3E;" points="383.609,98.22 369.283,94.48 231.3,232.456 231.3,250.525 " />
	<polygon style="fill:#F9CA62;" points="387.338,113.025 372.327,109.412 368.797,94.488 383.804,98.104 " />
	<polygon style="fill:#C93435;" points="268.703,158.352 306.028,166.964 367.768,105.228 330.44,96.612 " />
</svg>