<svg xmlns="http://www.w3.org/2000/svg" width="1024" height="1024">
	<path fill="#344e5d" d="M1024 511.9c0 282.71-229.23 511.9-512 511.9S0 794.61 0 511.9 229.23 0 512 0s512 229.19 512 511.9zm0 0"/>
	<path fill="#d35959" d="M519.9 190.16c-180.85 0-327.46 146.59-327.46 327.4 0 180.81 146.6 327.4 327.46 327.4 180.85 0 327.46-146.59 327.46-327.4 0-180.81-146.62-327.4-327.46-327.4zm0 606.3c-154.07 0-278.95-124.87-278.95-278.9 0-154.03 124.88-278.9 278.95-278.9 154.06 0 278.95 124.87 278.95 278.9 0 154.03-124.89 278.9-278.95 278.9zm0 0"/>
	<path fill="#d35959" d="M519.9 283.12c-129.5 0-234.49 104.97-234.49 234.44S390.39 752 519.9 752s234.49-104.97 234.49-234.44-104.98-234.44-234.5-234.44zm0 434.15c-110.32 0-199.76-89.41-199.76-199.7 0-110.3 89.45-199.72 199.76-199.72 110.31 0 199.75 89.41 199.75 199.71 0 110.3-89.43 199.7-199.75 199.7zm0 0"/>
	<path fill="#cd4f4f" d="M519.9 363.95c-84.86 0-153.64 68.78-153.64 153.61 0 84.83 68.78 153.6 153.64 153.6 84.85 0 153.64-68.77 153.64-153.6S604.75 363.95 519.9 363.95zm0 276.38c-67.82 0-122.8-54.96-122.8-122.76 0-67.8 54.99-122.77 122.8-122.77s122.8 54.96 122.8 122.77c0 67.8-54.98 122.76-122.8 122.76zm0 0"/>
	<path fill="#c54342" d="M519.9 569a51.43 51.43 0 1 1-.02-102.88A51.43 51.43 0 0 1 519.9 569zm0 0"/>
	<path fill="#c93435" d="M681.96 365.18l80.7 18.62 133.47-133.44-80.69-18.63zm0 0"/>
	<path fill="#e79e2d" d="M837.43 243.28l-8.1-30.98-30.97-8.08-298.3 298.23v39.06h39.06zm0 0"/>
	<path fill="#f2be3e" d="M829.33 212.3l-30.97-8.08-298.3 298.23v39.06zm0 0"/>
	<path fill="#f9ca62" d="M837.4 244.3l-32.46-7.8-7.63-32.27 32.44 7.82zm0 0"/>
	<path fill="#c93435" d="M580.91 342.27l80.7 18.62 133.47-133.44-80.7-18.62zm0 0"/>
</svg>