<svg xmlns="http://www.w3.org/2000/svg" width="1024" height="1024" viewBox="0 0 1024 1024">
	<title>HeadShot</title>
	<circle id="background" fill="#445566" cx="512" cy="512" r="480" stroke="#2e3440" stroke-width="64"/>
	<path fill="none" stroke="#99FF99" stroke-width="32" stroke-linecap="round" stroke-dasharray="2048, 128"	stroke-dashoffset="1024" d="M 512 32 a 480 480 0 0 1 0 960 a 480 480 0 0 1 0 -960"/>
	<g id="ring" fill="none" stroke="#334455" stroke-width="50" >
		<circle cx="512" cy="512" r="320"/>
		<circle cx="512" cy="512" r="224"/>
		<circle cx="512" cy="512" r="128"/>
	</g>
	<circle id="gold" fill="#BB6666" cx="512" cy="512" r="72"/>
	<g id="arrow">
		<polygon id="arrow-feathering-1" fill="#BB6666" points="675,360 810,225 890,245 755,375"/>
		<polygon id="arrow-shaft" fill="#EECC88" points="525,535 495,535 495,495 795,200 825,205 830,235"/>
		<polygon id="arrow-feathering-2" fill="#BB6666" points="575,335 710,205 790,220 655,355"/>
	</g>
</svg>