<svg xmlns="http://www.w3.org/2000/svg" width="1024" height="1024">
	<path fill="#b85756" d="M1024 512A512 512 0 1 1 0 512a512 512 0 0 1 1024 0"/>
	<path fill="#974d4c" d="M450 929s-257-38-257-257 336-240 262-512c0 0 251 79 190 324 0 0 33-21 59-62 0 0 127 98 127 248 0 149-175 259-259 259h-1s90-122 8-201c-117-111-67-183-67-183s-284 139-62 384"/>
	<path fill="#f0cb83" d="M450 897s-257-38-257-257 336-240 262-512c0 0 251 79 190 324 0 0 33-21 59-62 0 0 127 98 127 248S654 898 571 897c0 0 90-122 8-201-117-111-67-183-67-183s-284 139-62 384"/>
</svg>