<svg xmlns="http://www.w3.org/2000/svg" width="1024" height="1024" viewBox="0 0 1024 1024">
	<circle id="background" fill="#e04f5f" cx="512" cy="512" r="512"/>
	<path fill="#e2e4e5" d="M810 465c0 165-224 345-298 345S214 630 214 465c0-164 133-251 298-251s298 87 298 251zm0 0"/>
	<path fill="#3e3e3f" d="M549 624s-37-186 186-186c0 0 19 186-186 186zm0 0"/>
	<path fill="#ffffff" d="M214 465c0 165 224 345 298 345V214c-165 0-298 87-298 251zm261 159c-205 0-186-186-186-186 223 0 186 186 186 186zm0 0"/>
	<path fill="#3e3e3f" d="M475 624c-205 0-186-186-186-186 223 0 186 186 186 186zm0 0"/>
</svg>