<svg xmlns="http://www.w3.org/2000/svg" width="1024" height="1024" viewBox="0 0 1024 1024">
	<!--
	[Color Info]
		"background"	nord0 (#2e3440)
		"Aa"			nord4 (#d8dee9)
	-->
	<circle id="background" fill="#2e3440" cx="512" cy="512" r="512"/>
	<g id="simbol" xmlns:xlink="http://www.w3.org/1999/xlink">
		<defs>
			<g id="Aa">
				<path d="M182.5 728.4l169.5-452 169.5 452a24 24 0 1 0 45-16.8l-192-512a24 24 0 0 0-45 0l-192 512a24 24 0 0 0 45 16.8"/>
				<path d="M256 528h192a24 24 0 0 0 0-48H256a24 24 0 0 0 0 48M645.3 391.4h.2a344 344 0 0 1 66.7-6.8c27.8-.1 58.2 4.4 78.6 16.2a62.3 62.3 0 0 1 23.7 22.8A78.2 78.2 0 0 1 824 464v256h24v-24H720a87.6 87.6 0 0 1-88-88 75.1 75.1 0 0 1 24.9-57.4A93.6 93.6 0 0 1 720 528h112a24 24 0 0 0 0-48H720c-36.4 0-70.2 12.4-95.3 35a123.4 123.4 0 0 0-40.7 93 136 136 0 0 0 136 136h128c6.3 0 12.5-2.6 17-7 4.4-4.5 7-10.7 7-17V464c0-25-5.6-46.9-16-64.7a107.4 107.4 0 0 0-29.6-32.5c-17.3-12.7-37-20-56.6-24.4a267.6 267.6 0 0 0-57.6-5.8c-42.4 0-76.4 7.8-77.5 8a24 24 0 1 0 10.6 46.8"/>
			</g>
		</defs>
		<use xlink:href="#Aa" opacity="0.2" y="32"/>
		<use xlink:href="#Aa" fill="#d8dee9"/>
	</g>
</svg>