<svg xmlns="http://www.w3.org/2000/svg" width="1024" height="1024" viewBox="0 0 1024 1024">
	<title>InstantEnchant</title>
	<!--
	[Color Info]
		"background"	nord0 (#2e3440)
		"stick"			nord12 (#D08770)
		"star"			nord13 (#EBCB8B)
	-->
	<circle id="background" fill="#2e3440" cx="512" cy="512" r="512"/>
	<g id="stick" fill="#D08770">
		<path d="M411 391l472 473c11-11 21-22 30-34L447 381c-9-8-24-1-36 10zm0 0M403 425l-5-5 4 7 450 467h1z"/>
		<path d="M398 420l5 5 450 469 30-30-472-473c-8 9-14 20-13 29z"/>
	</g>
	<g id="star" fill="#EBCB8B">
		<path id="star-main" d="M576 199c11 6-14 158-10 168s133 93 133 103-154 34-163 43c-9 8-45 157-57 158s-83-138-91-142c-7-3-163 6-168-5-4-11 105-119 107-130s-55-154-47-161c7-8 148 61 157 61 8-1 127-101 139-95z"/>
		<path id="star-particle" d="M688 317c1 6-50 46-63 47-5 1-15-4-18-13-4-9-2-17 4-21 10-6 75-19 77-13zm0 0M422 173c6 0 30 60 28 73-1 5-7 13-17 14s-17-3-19-10c-4-11 2-77 8-77zm0 0M201 381c2-6 65-18 77-13 5 2 12 10 11 20s-7 16-14 17c-11 1-75-18-74-24zm0 0M333 642c-5-4 6-68 15-77 4-4 14-7 22-3 9 5 13 12 11 19-2 11-43 64-48 61z"/>
	</g>
</svg>
