<?xml version="1.0" encoding="UTF-8"?>
<!-- Generator: Adobe Illustrator 19.0.0, SVG Export Plug-In . SVG Version: 6.00 Build 0)  -->
<svg version="1.1" id="Layer_1" xmlns="http://www.w3.org/2000/svg" x="0px" y="0px" viewBox="0 0 473.931 473.931" style="enable-background:new 0 0 473.931 473.931;" xml:space="preserve">
	<circle style="fill:#954E9D;" cx="236.966" cy="236.966" r="236.966" />
	<g>
		<path style="fill:#9A7338;" d="M190.381,181.079l218.5,218.919c4.752-5.014,9.287-10.23,13.601-15.648L206.773,176.559   C202.803,172.6,195.604,175.848,190.381,181.079z" />
		<path style="fill:#9A7338;" d="M186.388,196.951c-0.891-0.891-1.609-1.74-2.11-2.615c0.221,1.167,0.703,2.241,1.594,3.132   l208.573,216.539c0.079-0.075,0.161-0.138,0.24-0.213L186.388,196.951z" />
	</g>
	<g>
		<path style="fill:#825E2D;" d="M190.381,181.079L190.381,181.079c-6.825,6.832-7.835,10.226-6.103,13.257   C183.526,190.34,186.34,185.124,190.381,181.079z" />
		<path style="fill:#825E2D;" d="M184.278,194.332c0.505,0.876,1.22,1.725,2.11,2.615L394.685,413.79   c4.924-4.393,9.646-9.01,14.193-13.8L190.381,181.079C186.34,185.124,183.526,190.34,184.278,194.332z" />
	</g>
	<path style="fill:#F5D827;" d="M266.368,92.186c5.13,2.615-6.309,73.095-4.423,77.675c1.886,4.58,61.533,42.911,61.485,47.674  c-0.06,4.763-71.153,15.846-75.236,19.805c-4.093,3.959-20.834,72.672-26.346,73.204c-5.512,0.528-38.477-63.823-42.087-65.44  c-3.603-1.62-75.55,2.582-77.75-2.44c-2.208-5.021,48.415-55.18,49.227-60.239c0.804-5.063-25.242-71.284-21.721-74.704  c3.528-3.416,68.426,28.4,72.512,28.194C206.115,135.717,261.238,89.567,266.368,92.186z" />
	<path style="fill:#F7E497;" d="M239.484,139.669c2.492,1.272-3.053,35.491-2.14,37.717c0.913,2.223,29.874,20.827,29.848,23.147  c-0.022,2.312-34.536,7.697-36.527,9.613s-10.114,35.285-12.789,35.543c-2.675,0.254-18.679-30.986-20.434-31.771  c-1.755-0.786-36.688,1.253-37.754-1.186c-1.066-2.432,23.509-26.784,23.906-29.242c0.389-2.458-12.254-34.608-10.544-36.269  c1.71-1.661,33.223,13.788,35.202,13.691C210.227,160.81,236.999,138.4,239.484,139.669z" />
	<g>
		<path style="fill:#F4D967;" d="M318.315,146.707c0.659,2.72-22.941,21.22-28.913,21.796c-2.47,0.239-6.9-1.643-8.505-5.942   c-1.609-4.288-0.703-7.903,1.923-9.721C287.199,149.828,317.657,143.99,318.315,146.707z" />
		<path style="fill:#F4D967;" d="M195.32,80.085c2.791,0.112,14.099,27.895,13.01,33.784c-0.453,2.447-3.48,6.189-8.052,6.559   c-4.561,0.359-7.798-1.504-8.812-4.531C189.767,110.865,192.529,79.976,195.32,80.085z" />
		<path style="fill:#F4D967;" d="M93.151,176.454c0.674-2.72,30.147-8.228,35.708-5.987c2.301,0.92,5.366,4.64,4.808,9.193   c-0.561,4.543-3.035,7.338-6.196,7.734C122.202,188.05,92.489,179.167,93.151,176.454z" />
		<path style="fill:#F4D967;" d="M154.059,297.04c-2.294-1.598,3.012-31.105,7.083-35.509c1.68-1.83,6.241-3.36,10.305-1.231   c4.049,2.14,5.781,5.437,5.029,8.535C175.215,273.998,156.361,298.626,154.059,297.04z" />
	</g>
</svg>