<svg xmlns="http://www.w3.org/2000/svg" width="1024" height="1024" viewBox="0 0 1024 1024">
	<circle id="background" fill="#629986" cx="512" cy="512" r="512"/>
	<path fill="#629986" d="M672 864H352a32 32 0 0 1 0-64h320a32 32 0 0 1 0 64"/>
	<path fill="#fffffe" d="M704 800c0 18-14 32-32 32H352a32 32 0 0 1 0-64h320c18 0 32 14 32 32"/>
	<path fill="#dedeca" d="M592 672s-16 96 48 96H384c64 0 48-96 48-96h160"/>
	<path fill="#629986" d="M768 704H590c0-18 2-32 2-32h176c35 0 64-29 64-64v32c0 35-29 64-64 64m-334 0H256c-35 0-64-29-64-64V288v320c0 35 29 64 64 64h176s2 14 2 32"/>
	<path opacity="0.2" d="M590 704H434c0-18-2-32-2-32h160s-2 14-2 32"/>
	<path fill="#4c5665" d="M256 648c-22 0-40-18-40-40V256c0-22 18-40 40-40h512c22 0 40 18 40 40v352c0 22-18 40-40 40H256"/>
	<path fill="#fffffe" d="M768 192H256c-35 0-64 29-64 64v352c0 35 29 64 64 64h512c35 0 64-29 64-64V256c0-35-29-64-64-64m0 48c9 0 16 7 16 16v352c0 9-7 16-16 16H256c-9 0-16-7-16-16V256c0-9 7-16 16-16h512"/>
	<path fill="#fffffe" opacity="0.2" d="M768 624H651L430 240h338c9 0 16 7 16 16v352c0 9-7 16-16 16"/>
	<path fill="#fffffe" d="M800 638H659l-8-14h117c9 0 16-7 16-16V256c0-9-7-16-16-16H430l-10-18h380v416"/>
</svg>