<svg xmlns="http://www.w3.org/2000/svg" width="1024" height="1024">
	<path fill="#DEDECA" d="M1024 512A512 512 0 1 1 0 512a512 512 0 0 1 1024 0"/>
	<path fill="#B3B2A4" d="M454 864c-10 0-20-4-28-12L204 630a39 39 0 0 1 0-56l290-290c2-2 15-12 21-12h250c11 0 20 9 19 20v249c0 7-10 19-12 21L482 852c-7 8-17 12-28 12m250-544a32 32 0 1 0 0 64 32 32 0 0 0 0-64"/>
	<path fill="#B85756" d="M704 352a32 32 0 1 1 0-64 32 32 0 0 1 0 64zm61-112H515c-6 0-19 10-21 12L204 542a39 39 0 0 0 0 56l222 222a39 39 0 0 0 56 0l290-290c2-2 12-14 12-21V260a18 18 0 0 0-19-20zm0 0"/>
</svg>