<svg xmlns="http://www.w3.org/2000/svg" width="1024" height="1024">
	<path fill="#76ABC4" d="M1024 512A512 512 0 1 1 0 512a512 512 0 0 1 1024 0"/>
	<path fill="#638DA0" d="M512 896a352.4 352.4 0 0 1-331.2-471.5 32 32 0 1 1 60.2 21.8A288.3 288.3 0 0 0 512 832c158.8 0 288-129.2 288-288a288.9 288.9 0 0 0-210-277.3 32 32 0 0 1 17.2-61.7A353.1 353.1 0 0 1 864 544c0 194.1-157.9 352-352 352"/>
	<path fill="#638DA0" d="M448 304a64 64 0 1 1 0-128 64 64 0 0 1 0 128M512 608c-17 0-33.3-6.7-45.2-18.8-30.4-30.3-238-299.7-238-299.7a22 22 0 0 1 30.3-30.2s252.8 194.1 298.1 239.5A64 64 0 0 1 512 608"/>
	<path fill="#4C5665" d="M512 864a352.4 352.4 0 0 1-331.2-471.5 32 32 0 1 1 60.2 21.8A288.3 288.3 0 0 0 512 800c158.8 0 288-129.2 288-288a288.9 288.9 0 0 0-210-277.3 32 32 0 0 1 17.2-61.7A353.1 353.1 0 0 1 864 512c0 194.1-157.9 352-352 352"/>
	<path fill="#4C5665" d="M512 208a64 64 0 1 1-128 0 64 64 0 0 1 128 0M557.2 466.8C512 421.4 259.1 227.3 259.1 227.3a22 22 0 1 0-30.2 30.2S436.4 527 466.8 557.2a64 64 0 1 0 90.4-90.4"/>
</svg>