<svg xmlns="http://www.w3.org/2000/svg" width="1024" height="1024" viewBox="0 0 1024 1024">
	<title>LocalChat</title>
	<circle id="background" fill="#445566" cx="512" cy="512" r="480" stroke="#2e3440" stroke-width="64"/>
	<path fill="none" stroke="#99FF99" stroke-width="32" stroke-linecap="round" stroke-dasharray="2048, 128"	stroke-dashoffset="1024" d="M 512 32 a 480 480 0 0 1 0 960 a 480 480 0 0 1 0 -960"/>
	<g id="chatbubble" fill="#99FF99">
		<path opacity="0.4" d="M363 624c0 20 17 37 37 37h224l111 112V661h38c20 0 37-17 37-37V326c0-21-17-37-37-37H400c-20 0-37 16-37 37z"/>
		<path d="M661 549c0 21-17 37-37 37H400L289 698V586h-38c-20 0-37-16-37-37V251c0-20 17-37 37-37h373c20 0 37 17 37 37z"/>
		<path d="M655 231c-7-10-18-17-31-17H251c-20 0-37 17-37 37v298c0 21 17 37 37 37h38v11z"/>
		<path id="chatbubble-punch" fill="#223444" d="M363 400a37 37 0 1 1-74 0 37 37 0 0 1 74 0zm0 0M475 400a37 37 0 1 1-75 0 37 37 0 0 1 75 0zm0 0M586 400a37 37 0 1 1-74 0 37 37 0 0 1 74 0z"/>
	</g>
</svg>
