<svg xmlns="http://www.w3.org/2000/svg" width="1024" height="1024" viewBox="0 0 1024 1024">
	<circle id="background" fill="#25B7D3" cx="512" cy="512" r="512"/>
	<path fill="#6FDAF1" d="M363 624c0 20 17 37 37 37h224l111 112V661h38c20 0 37-17 37-37V326c0-21-17-37-37-37H400c-20 0-37 16-37 37zm0 0"/>
	<path fill="#F0F1F1" d="M661 549c0 21-17 37-37 37H400L289 698V586h-38c-20 0-37-16-37-37V251c0-20 17-37 37-37h373c20 0 37 17 37 37zm0 0"/>
	<path fill="#FFFFFF" d="M655 231c-7-10-18-17-31-17H251c-20 0-37 17-37 37v298c0 21 17 37 37 37h38v11zm0 0"/>
	<path fill="#21B2D1" d="M363 400a37 37 0 1 1-74 0 37 37 0 0 1 74 0zm0 0M475 400a37 37 0 1 1-75 0 37 37 0 0 1 75 0zm0 0M586 400a37 37 0 1 1-74 0 37 37 0 0 1 74 0zm0 0"/>
</svg>