<?xml version="1.0" encoding="UTF-8"?>
<svg height="110px" style="enable-background:new 0 0 110 110;" version="1.0" viewBox="0 0 110 110" width="110px" xml:space="preserve" xmlns="http://www.w3.org/2000/svg" xmlns:xlink="http://www.w3.org/1999/xlink">
    <g id="Artboard" />
    <g id="Multicolor">
        <circle cx="55" cy="55" r="55" style="fill:#25B7D3;" />
        <g>
            <path d="M69,75c0,2.209-1.791,4-4,4h-6c-2.209,0-4-1.791-4-4V35c0-2.209,1.791-4,4-4h6c2.209,0,4,1.791,4,4    V75z" style="fill:#F0F1F1;" />
            <path d="M69,45.412V35c0-2.209-1.791-4-4-4h-6c-2.209,0-4,1.791-4,4v24.412L69,45.412z" style="fill:#FFFFFF;" />
            <path d="M53,79c0,2.209-1.791,4-4,4h-6c-2.209,0-4-1.791-4-4V31c0-2.209,1.791-4,4-4h6c2.209,0,4,1.791,4,4    V79z" style="fill:#F0F1F1;" />
            <path d="M53,61.412V31c0-2.209-1.791-4-4-4h-6c-2.209,0-4,1.791-4,4v44.412L53,61.412z" style="fill:#FFFFFF;" />
            <path d="M37,83c0,2.209-1.791,4-4,4h-6c-2.209,0-4-1.791-4-4V27c0-2.209,1.791-4,4-4h6c2.209,0,4,1.791,4,4    V83z" style="fill:#F0F1F1;" />
            <path d="M37,27c0-2.209-1.791-4-4-4h-6c-2.209,0-4,1.791-4,4v56c0,2.209,1.791,4,4,4h0.412L37,77.412V27z" style="fill:#FFFFFF;" />
            <circle cx="30" cy="31" r="2.5" style="fill:#5B5C5F;" />
            <circle cx="30" cy="79" r="2.5" style="fill:#5B5C5F;" />
            <circle cx="46" cy="35" r="2.5" style="fill:#5B5C5F;" />
            <circle cx="46" cy="75" r="2.5" style="fill:#5B5C5F;" />
            <circle cx="62" cy="39" r="2.5" style="fill:#5B5C5F;" />
            <circle cx="62" cy="71" r="2.5" style="fill:#5B5C5F;" />
            <path d="M85,71c0,2.209-1.791,4-4,4h-6c-2.209,0-4-1.791-4-4V39c0-2.209,1.791-4,4-4h6c2.209,0,4,1.791,4,4    V71z" style="fill:#F0F1F1;" />
            <circle cx="78" cy="43" r="2.5" style="fill:#5B5C5F;" />
            <circle cx="78" cy="67" r="2.5" style="fill:#5B5C5F;" />
            <path d="M85.019,81.514L51.822,55.479c-0.33,0.861-0.792,1.688-1.39,2.452s-1.292,1.409-2.05,1.935    L81.58,85.899c1.211,0.95,2.963,0.738,3.913-0.473C86.442,84.215,86.23,82.463,85.019,81.514z" style="fill:#9C6144;" />
            <circle cx="43" cy="52.103" r="9.444" style="fill:#DF2C2C;" />
            <path d="M79.412,35H75c-2.209,0-4,1.791-4,4v4.412L79.412,35z" style="fill:#FFFFFF;" />
            <path d="M85.019,81.514L51.822,55.479c-0.325,0.847-0.78,1.66-1.364,2.413l35.053,27.504    C86.436,84.187,86.221,82.456,85.019,81.514z" style="fill:#AF7653;" />
            <path d="M48.829,44.671c-4.104-3.219-10.041-2.501-13.26,1.604c-3.03,3.863-2.57,9.347,0.917,12.663    l13.344-13.344C49.519,45.27,49.192,44.957,48.829,44.671z" style="fill:#FA5655;" />
        </g>
    </g>
</svg>