<svg xmlns="http://www.w3.org/2000/svg" width="1024" height="1024" viewBox="0 0 1024 1024">
	<title>NbsPlayer</title>
	<!--
	[Color Info]
		"background"	nord0 	(#2e3440)
		"pad"					nord4		(#D8DEE9)
		"pad-ball"		nord0		(#2e3440)
		"stick"				nord12	(#D08770)
		"ball"				nord11 	(#BF616A)
	-->
	<circle id="background" fill="#2e3440" cx="512" cy="512" r="512"/>
	<g id="pad" fill="#D8DEE9">
		<path d="M344 773c0 20-16 37-37 37h-56c-20 0-37-17-37-37V251c0-20 17-37 37-37h56c21 0 37 17 37 37z"/>
		<path d="M493 735c0 21-16 38-37 38h-56c-20 0-37-17-37-38V289c0-21 17-38 37-38h56c21 0 37 17 37 38z"/>
		<path d="M642 698c0 21-16 37-37 37h-56c-20 0-37-16-37-37V326c0-21 17-37 37-37h56c21 0 37 16 37 37z"/>
		<path d="M791 661c0 21-16 37-37 37h-56c-20 0-37-16-37-37V363c0-21 17-37 37-37h56c21 0 37 16 37 37z"/>
	</g>
	<g id="pad-ball" fill="#2e3440">
		<path d="M303 289a23 23 0 1 1-47 0 23 23 0 0 1 47 0zm0 0M303 735a23 23 0 1 1-47 0 23 23 0 0 1 47 0zm0 0M451 326a23 23 0 1 1-46 0 23 23 0 0 1 46 0zm0 0M451 698a23 23 0 1 1-46 0 23 23 0 0 1 46 0zm0 0M600 363a23 23 0 1 1-46 0 23 23 0 0 1 46 0zm0 0M600 661a23 23 0 1 1-46 0 23 23 0 0 1 46 0z"/>
		<path d="M749 400a23 23 0 1 1-46 0 23 23 0 0 1 46 0zm0 0M749 624a23 23 0 1 1-46 0 23 23 0 0 1 46 0z"/>
	</g>
	<path id="stick" fill="#D08770" d="M791 759L482 516a88 88 0 0 1-32 41l309 243a26 26 0 1 0 32-41z"/>
	<path id="ball" fill="#BF616A" d="M488 485a88 88 0 1 1-176 0 88 88 0 0 1 176 0z"/>
</svg>
