<svg xmlns="http://www.w3.org/2000/svg" width="1024" height="1024" viewBox="0 0 1024 1024">
	<path fill="#25B7D3" d="M1024 512A512 512 0 1 1 0 512a512 512 0 0 1 1024 0zm0 0"/>
	<path fill="#F0F1F1" d="M642 698c0 21-16 37-37 37h-56c-20 0-37-16-37-37V326c0-21 17-37 37-37h56c21 0 37 16 37 37zm0 0"/>
	<path fill="#FFFFFF" d="M642 423v-97c0-21-16-37-37-37h-56c-20 0-37 16-37 37v227zm0 0"/>
	<path fill="#F0F1F1" d="M493 735c0 21-16 38-37 38h-56c-20 0-37-17-37-38V289c0-21 17-38 37-38h56c21 0 37 17 37 38zm0 0"/>
	<path fill="#FFFFFF" d="M493 572V289c0-21-16-38-37-38h-56c-20 0-37 17-37 38v413zm0 0"/>
	<path fill="#F0F1F1" d="M344 773c0 20-16 37-37 37h-56c-20 0-37-17-37-37V251c0-20 17-37 37-37h56c21 0 37 17 37 37zm0 0"/>
	<path fill="#FFFFFF" d="M344 251c0-20-16-37-37-37h-56c-20 0-37 17-37 37v522c0 20 17 37 37 37h4l89-89zm0 0"/>
	<path fill="#5B5C5F" d="M303 289a23 23 0 1 1-47 0 23 23 0 0 1 47 0zm0 0M303 735a23 23 0 1 1-47 0 23 23 0 0 1 47 0zm0 0M451 326a23 23 0 1 1-46 0 23 23 0 0 1 46 0zm0 0M451 698a23 23 0 1 1-46 0 23 23 0 0 1 46 0zm0 0M600 363a23 23 0 1 1-46 0 23 23 0 0 1 46 0zm0 0M600 661a23 23 0 1 1-46 0 23 23 0 0 1 46 0zm0 0"/>
	<path fill="#F0F1F1" d="M791 661c0 21-16 37-37 37h-56c-20 0-37-16-37-37V363c0-21 17-37 37-37h56c21 0 37 16 37 37zm0 0"/>
	<path fill="#5B5C5F" d="M749 400a23 23 0 1 1-46 0 23 23 0 0 1 46 0zm0 0M749 624a23 23 0 1 1-46 0 23 23 0 0 1 46 0zm0 0"/>
	<path fill="#9C6144" d="M791 759L482 516a88 88 0 0 1-32 41l309 243a26 26 0 1 0 32-41zm0 0"/>
	<path fill="#DF2C2C" d="M488 485a88 88 0 1 1-176 0 88 88 0 0 1 176 0zm0 0"/>
	<path fill="#FFFFFF" d="M739 326h-41c-20 0-37 16-37 37v41zm0 0"/>
	<path fill="#AF7653" d="M791 759L482 516c-3 8-7 16-12 23l326 256c9-11 7-27-5-36zm0 0"/>
	<path fill="#FA5655" d="M455 416a88 88 0 0 0-115 133l124-125-9-8zm0 0"/>
</svg>