<?xml version="1.0" encoding="UTF-8"?>
<!-- Generator: Adobe Illustrator 19.0.0, SVG Export Plug-In . SVG Version: 6.00 Build 0)  -->
<svg version="1.1" id="Layer_1" xmlns="http://www.w3.org/2000/svg"  x="0px" y="0px" viewBox="0 0 473.658 473.658" style="enable-background:new 0 0 473.658 473.658;" xml:space="preserve">
	<circle style="fill:#344E5D;" cx="236.829" cy="236.829" r="236.829" />
	<g>
		<path style="fill:#DEBA24;" d="M334.743,347.39c0,13.608-11.028,24.636-24.629,24.636H164.195    c-13.601,0-24.629-11.028-24.629-24.636l-30.691-80.042c0-13.601,11.021-24.629,24.629-24.629h207.301    c13.608,0,24.629,11.028,24.629,24.629L334.743,347.39z" />
		<path style="fill:#DEBA24;" d="M189.818,324.429c5.998,10.935,2.001,24.659-8.934,30.654l0,0    c-10.935,6.002-24.659,2.001-30.654-8.926L73.087,202.051c-5.998-10.935-2.001-24.659,8.934-30.654l0,0    c10.927-6.002,24.651-2.001,30.654,8.926L189.818,324.429z" />
		<path style="fill:#DEBA24;" d="M284.498,324.429c-6.002,10.935-2.008,24.659,8.926,30.654l0,0    c10.927,6.002,24.659,2.001,30.654-8.926l77.144-144.106c5.998-10.935,2.001-24.659-8.934-30.654l0,0    c-10.927-6.002-24.651-2.001-30.654,8.926L284.498,324.429z" />
		<path style="fill:#DEBA24;" d="M262.344,324.332c0.052,12.475-10.007,22.628-22.475,22.684l0,0    c-12.475,0.06-22.628-10-22.684-22.475l0.942-163.447c-0.06-12.475,10.007-22.628,22.475-22.684l0,0    c12.468-0.06,22.621,10,22.684,22.468L262.344,324.332z" />
		<path style="fill:#DEBA24;" d="M102.375,170.877c0,0,69.104,42.766,121.1-24.285l-3.762,98.86l-72.53,8.208L102.375,170.877z" />
		<path style="fill:#DEBA24;" d="M373.306,170.193c0,0-61.573,46.184-113.575-20.859L257,247.161l72.522,8.208L373.306,170.193z" />
		<circle style="fill:#DEBA24;" cx="75.016" cy="168.806" r="31.128" />
		<circle style="fill:#DEBA24;" cx="239.559" cy="134.289" r="31.128" />
		<circle style="fill:#DEBA24;" cx="398.604" cy="168.132" r="31.128" />
	</g>
	<path style="fill:#B8972F;" d="M334.743,347.39c0,13.608-11.028,24.636-24.629,24.636H164.195   c-13.601,0-24.629-11.028-24.629-24.636c0,0,56.767-10.523,97.443-10.523S334.743,347.39,334.743,347.39z" />
	<g style="opacity:0.4;">
		<path style="fill:#F6E568;" d="M248.87,306.505c0,2.55-3.351,4.615-7.502,4.615l0,0c-4.14,0-7.502-2.068-7.502-4.615V218.77    c0-2.55,3.358-4.615,7.502-4.615l0,0c4.147,0,7.502,2.068,7.502,4.615V306.505z" />
	</g>
	<g style="opacity:0.4;">
		<path style="fill:#F6E568;" d="M296.3,317.679c-1.387,2.132-5.389,1.978-8.934-0.337l0,0c-3.541-2.315-5.28-5.931-3.885-8.055    l38.776-59.228c1.395-2.132,5.396-1.978,8.941,0.337l0,0c3.534,2.322,5.273,5.924,3.878,8.055L296.3,317.679z" />
	</g>
	<g style="opacity:0.4;">
		<path style="fill:#F6E568;" d="M180.825,317.679c1.395,2.132,5.396,1.978,8.941-0.337l0,0c3.534-2.315,5.273-5.931,3.878-8.055    l-38.776-59.228c-1.395-2.132-5.396-1.978-8.941,0.337l0,0c-3.534,2.322-5.273,5.924-3.878,8.055L180.825,317.679z" />
	</g>
	<g style="opacity:0.4;">
		<path style="fill:#F6E568;" d="M49.939,176.042c-5.471-5.471,0.535-20.62,6.002-26.099c5.479-5.464,18.72-10.658,24.191-5.187    C85.599,150.231,55.41,181.505,49.939,176.042z" />
	</g>
	<g style="opacity:0.4;">
		<path style="fill:#F6E568;" d="M214.32,140.452c-5.471-5.471,0.535-20.62,6.002-26.091c5.467-5.471,18.713-10.658,24.184-5.187    C249.977,114.645,219.791,145.919,214.32,140.452z" />
	</g>
	<g style="opacity:0.4;">
		<path style="fill:#F6E568;" d="M373.62,173.499c-5.478-5.471,0.535-20.62,6.002-26.099c5.471-5.464,18.713-10.658,24.184-5.187    S379.083,178.962,373.62,173.499z" />
	</g>
</svg>