<svg xmlns="http://www.w3.org/2000/svg" width="1024" height="1024" viewBox="0 0 1024 1024">
	<circle id="background" fill="#4ABC96" cx="512" cy="512" r="512"/>
	<path fill="#357180" d="M529 869c-11-5-18-8-18-16 0-7 4-11 11-11s11 4 13 13l1 4h13l-3-29-4-1-8-1-11-1c-20 0-34 12-34 29 0 21 15 28 27 34 10 4 16 7 16 14 0 3 0 12-14 12-5 0-12-3-14-6-1-2-3-7-4-15l-1-5-12 4 1 27 2 1c8 6 20 8 29 8 21 0 36-13 36-32 0-17-14-23-26-29zm0 0M176 479l12 2-14 45-14-45 11-2v-13h-44v13l11 2-3 10-12 35-12-45 11-2v-13H78v13l11 3 24 86h14l19-58 18 58h14l27-86 10-3v-13h-39v13zm0 0M536 119l12 2v47l-54-62h-32v13l12 2v69l-12 2v13h43v-13l-13-2v-52l33 38 25 28 1 2h16v-85l11-2v-13h-42v13zm0 0M899 534l-5 13h-27v-25h15l2 10h13v-35h-13l-2 10h-15v-23h20l3 12h13l-3-30h-68v13l13 3v68l-13 3v12h74l7-31h-14zm0 0M531 369l24-1-24-99-1-5c-2-7-7-12-15-12-12 0-16 8-17 18l-27 99h27z"/>
	<path fill="#B0DFE3" d="M515 252c-12 0-16 8-17 18l-27 99 43-1z"/>
	<path fill="#357180" d="M657 532v24l100-24 5-1c6-3 11-7 11-16 0-11-7-15-17-17l-99-27v27z"/>
	<path fill="#B0DFE3" d="M773 515c0-11-7-15-17-17l-99-27v44z"/>
	<path fill="#357180" d="M496 659h-24l24 100 1 4h1c2 7 6 12 15 12 11 0 15-8 17-17l27-100-27 1z"/>
	<path fill="#B0DFE3" d="M513 775c11 0 15-8 17-17l27-100-44 1z"/>
	<path fill="#357180" d="M368 498v-24l-99 24-5 1c-7 3-12 7-12 16 0 11 8 15 17 17l100 27v-27z"/>
	<path fill="#B0DFE3" d="M252 515c0 11 8 15 17 17l100 27-1-44z"/>
	<path fill="#357180" d="M513 362a153 153 0 1 0 0 305 153 153 0 0 0 0-305zm0 285a133 133 0 1 1 0-265 133 133 0 0 1 0 265z"/>
</svg>