<?xml version="1.0" encoding="UTF-8"?>
<!-- Generator: Adobe Illustrator 19.0.0, SVG Export Plug-In . SVG Version: 6.00 Build 0)  -->
<svg version="1.1" id="Layer_1" xmlns="http://www.w3.org/2000/svg" xmlns:xlink="http://www.w3.org/1999/xlink" x="0px" y="0px" viewBox="0 0 473.654 473.654" style="enable-background:new 0 0 473.654 473.654;" xml:space="preserve">
<circle style="fill:#4ABC96;" cx="236.827" cy="236.827" r="236.827" />
	<g>
		<path style="fill:#357180;" d="M244.89,402.225c-5.149-2.405-8.306-4.069-8.306-7.726c0-3.257,1.582-4.843,4.828-4.843   c3.418,0,5.09,1.615,6.167,5.953l0.404,1.616h5.849l-1.174-13.365l-1.81-0.123c-1.234-0.079-2.464-0.329-3.698-0.568   c-1.705-0.344-3.463-0.688-5.299-0.688c-9.173,0-15.826,5.677-15.826,13.504c0,9.708,7.072,12.965,12.756,15.579   c4.645,2.146,7.273,3.511,7.273,6.552c0,1.395,0,5.669-6.309,5.669c-2.307,0-5.86-1.234-6.548-2.614   c-0.524-1.051-1.466-3.347-1.911-6.896l-0.325-2.558l-5.875,1.945l0.793,12.543l0.823,0.583c3.418,2.446,9.222,3.549,13.451,3.549   c9.685,0,16.447-6.155,16.447-14.966C256.602,407.696,250.114,404.667,244.89,402.225z" />
		<path style="fill:#357180;" d="M81.429,221.772l5.482,0.935l-6.514,20.758l-6.541-20.773l5.258-0.935v-6.009H58.659v6.002   l5.198,0.95c-0.389,1.316-0.92,2.767-1.522,4.42l-5.22,16.301l-5.882-20.728l5.116-0.942v-6.002H35.907v5.931l5.045,1.141   l11.267,39.748h6.294l8.949-26.521l8.436,26.521h6.249l12.767-39.778l4.45-1.163v-5.879H81.433v6.024H81.429z" />
		<path style="fill:#357180;" d="M248.151,54.987l5.482,1.051v21.891L228.48,49.022h-14.685v5.953l5.265,1.058v31.854l-5.265,0.849   v6.039h19.618v-6.077l-5.882-0.849V64.04c4.211,4.734,10.097,11.432,15.34,17.396c5.22,5.946,9.816,11.174,11.522,13.051   l0.628,0.703h7.083V56.03l5.262-1.058v-5.953h-19.214V54.987z" />
		<path style="fill:#357180;" d="M415.964,247.145l-2.307,6.099h-12.434v-11.716l6.705,0.138l1.066,4.66h5.995l-0.307-2.382   c-0.411-3.22-0.411-8.474,0-11.466l0.333-2.412h-5.998l-1.058,4.428h-6.731V223.78h8.956l1.664,5.478h5.796l-1.219-13.511h-31.461   v6.002l5.688,1.043v31.872l-5.688,1.043v5.778h33.903l3.612-14.345h-6.514V247.145z" />
		<path style="fill:#357180;" d="M245.724,170.483l11.125-0.06l-11.17-46.094c-0.12-0.707-0.295-1.38-0.49-2.016l-0.026-0.093l0,0   c-0.991-3.149-3.029-5.441-7.15-5.441c-5.164,0-7.072,3.571-7.722,7.954l-12.468,45.896l12.329-0.06L245.724,170.483z" />
	</g>
	<path style="fill:#B0DFE3;" d="M238.009,116.776c-5.164,0-7.072,3.571-7.722,7.954l-12.468,45.896l20.029-0.213L238.009,116.776z" />
	<path style="fill:#357180;" d="M304.05,245.997l0.056,11.133l46.105-11.166c0.707-0.116,1.369-0.292,2.023-0.49l0.086-0.03l0,0  c3.149-0.98,5.445-3.033,5.445-7.15c0-5.172-3.583-7.072-7.958-7.718l-45.896-12.468l0.06,12.337L304.05,245.997z" />
	<path style="fill:#B0DFE3;" d="M357.765,238.293c0-5.172-3.583-7.072-7.958-7.718l-45.896-12.468l0.206,20.033L357.765,238.293z" />
	<path style="fill:#357180;" d="M229.572,304.772l-11.133,0.067l11.17,46.094c0.12,0.714,0.295,1.38,0.49,2.023l0.034,0.094l0,0  c0.991,3.149,3.029,5.441,7.15,5.441c5.164,0,7.075-3.579,7.722-7.969l12.468-45.888l-12.341,0.067L229.572,304.772z" />
	<path style="fill:#B0DFE3;" d="M237.283,358.491c5.164,0,7.075-3.579,7.722-7.969l12.468-45.888l-20.029,0.213L237.283,358.491z" />
	<path style="fill:#357180;" d="M170.409,230.511l-0.06-11.133l-46.094,11.174c-0.718,0.116-1.387,0.284-2.031,0.49l-0.086,0.03l0,0  c-3.152,0.995-5.437,3.033-5.437,7.143c0,5.179,3.568,7.079,7.95,7.726l45.903,12.475l-0.067-12.344L170.409,230.511z" />
	<path style="fill:#B0DFE3;" d="M116.701,238.218c0,5.179,3.568,7.079,7.95,7.726l45.903,12.475l-0.221-20.033L116.701,238.218z" />
	<path style="fill:#357180;" d="M237.444,167.35c-38.993,0-70.588,31.603-70.588,70.584c0,38.974,31.596,70.577,70.588,70.577  c38.974,0,70.573-31.603,70.573-70.577C308.017,198.953,276.418,167.35,237.444,167.35z M237.444,299.263  c-33.881,0-61.34-27.471-61.34-61.329c0-33.877,27.463-61.336,61.34-61.336c33.869,0,61.325,27.463,61.325,61.336  C298.77,271.796,271.314,299.263,237.444,299.263z" />
</svg>