<svg xmlns="http://www.w3.org/2000/svg" width="1024" height="1024" viewBox="0 0 1024 1024">
	<circle id="background" fill="#45B39C" cx="512" cy="512" r="512"/>
	<path fill="#E1E6E9" d="M352 300h320v179H352zm0 0"/>
	<path fill="#EBF0F3" d="M296 363h432v179H296zm0 0"/>
	<path fill="#E1E6E9" d="M256 429h512v179H256zm0 0"/>
	<path fill="#DC8744" d="M635 519l-16 50c-3 6-9 11-16 11H421c-7 0-13-5-16-11l-16-50c-2-7-9-11-15-11H228c-9 0-16 7-16 16v168c0 18 14 32 32 32h536c18 0 32-14 32-32V524c0-9-7-16-16-16H650c-6 0-13 4-15 11zm0 0"/>
	<path fill="#FCD462" d="M570 651H454a12 12 0 0 0 0 24h116a12 12 0 0 0 0-24zm0 0"/>
</svg>