<?xml version="1.0" encoding="UTF-8"?>
<svg version="1.1" viewBox="0 0 150 150" xml:space="preserve" xmlns="http://www.w3.org/2000/svg" xmlns:cc="http://creativecommons.org/ns#" xmlns:dc="http://purl.org/dc/elements/1.1/" xmlns:rdf="http://www.w3.org/1999/02/22-rdf-syntax-ns#">
    <style type="text/css">.st0{fill:#45B39C;} .st1{fill:#F6C358;} .st2{fill:#FCD462;} .st3{fill:none;} .st4{fill:#DC8744;} .st5{fill:#334D5C;} .st6{fill:#EFC84A;} .st7{fill:#44C4A1;} .st8{fill:#3EA69B;} .st9{fill:#E1E6E9;} .st10{fill:#EBF0F3;} .st11{fill:#27A2DB;} .st12{fill:#2D93BA;} .st13{fill:#D5D6DB;} .st14{fill:#EA8953;} .st15{fill:#E56353;} .st16{fill:#E05B49;} .st17{fill:#31978C;} .st18{fill:#D15241;} .st19{fill:#64798A;} .st20{fill:#3A556A;} .st21{fill:#1C75A1;} .st22{fill:#FFFFFF;} .st23{fill:#2F4859;} .st24{fill:#3B566A;} .st25{fill:#64798A;stroke:#3B566A;stroke-width:2;stroke-linecap:round;stroke-linejoin:round;stroke-miterlimit:10;} .st26{fill:#CE412D;} .st27{fill:none;stroke:#2D93BA;stroke-width:4;stroke-miterlimit:10;}</style>
    <circle cx="75" cy="75" r="75" fill="#45b39c" />
    <path class="st9" d="m51.562 43.931h46.875v26.231h-46.875z" fill="#e1e6e9" />
    <path class="st10" d="m43.359 53.114h63.281v26.231h-63.281z" fill="#ebf0f3" />
    <path class="st9" d="m37.5 62.805h75v26.231h-75z" fill="#e1e6e9" />
    <path class="st4" d="m93.056 75.954-2.4492 7.3758a2.3438 2.3438 0 0 1-2.2242 1.6055h-26.766a2.3438 2.3438 0 0 1-2.2242-1.6055l-2.4492-7.3758a2.3438 2.3438 0 0 0-2.2254-1.6055h-21.32a2.3438 2.3438 0 0 0-2.3438 2.3438v24.689a4.6875 4.6875 0 0 0 4.6875 4.6875h78.516a4.6875 4.6875 0 0 0 4.6875-4.6875v-24.689a2.3438 2.3438 0 0 0-2.3438-2.3438h-21.32a2.3438 2.3438 0 0 0-2.2254 1.6055z" fill="#dc8744" />
    <path class="st2" d="m83.524 95.402h-17.048a1.7578 1.7578 0 0 0 0 3.5156h17.048a1.7578 1.7578 0 0 0 0-3.5156z" fill="#fcd462" />
    <metadata>
        <rdf:RDF>
            <rdf:Description about="https://iconscout.com/legal#licenses" dc:date="2017-11-08" dc:description="document,bill,office,folder" dc:format="image/svg+xml" dc:language="en" dc:publisher="Iconscout" dc:title="document,bill,office,folder">
                <dc:creator>
                    <rdf:Bag>
                        <rdf:li>Dinosoft Labs</rdf:li>
                    </rdf:Bag>
                </dc:creator>
            </rdf:Description>
            <cc:Work rdf:about="">
                <dc:format>image/svg+xml</dc:format>
                <dc:type rdf:resource="http://purl.org/dc/dcmitype/StillImage" />
            </cc:Work>
        </rdf:RDF>
    </metadata>
</svg>