<svg xmlns="http://www.w3.org/2000/svg" width="1024" height="1024" viewBox="0 0 1024 1024">
	<path fill="#FABC3D" d="M1024 512A512 512 0 1 1 0 512a512 512 0 0 1 1024 0zm0 0"/>
	<path fill="#FFFFFF" d="M512 586.5c164.6 0 279.3 54 279.3 102.4 0 48.4-114.7 102.4-279.3 102.4-164.6 0-279.3-54-279.3-102.4 0-48.5 114.7-102.4 279.3-102.4m0-18.6c-164.5 0-297.9 54.1-297.9 121 0 66.8 133.4 121 297.9 121 164.5 0 297.9-54.2 297.9-121 0-66.9-133.4-121-297.9-121zm0 0"/>
	<path fill="#FFFFFF" d="M512 642.3c115.3 0 167.6 32.2 167.6 42 0 9.7-52.3 41.8-167.6 41.8S344.4 694 344.4 684.2c0-9.7 52.3-41.9 167.6-41.9m0-18.6c-102.8 0-186.2 27.1-186.2 60.5s83.4 60.5 186.2 60.5c102.8 0 186.2-27 186.2-60.5 0-33.4-83.4-60.5-186.2-60.5zm0 0"/>
	<path fill="#DF2C2C" d="M572.2 332.4a74.5 74.5 0 1 0-120.2 0c-14.4 2.9-77.6 20-69.6 60.3l12 126.6a37.3 37.3 0 0 0 36.5 30h9l7.2 115.4c1.9 19 17.9 33.5 37 33.5H540a37.2 37.2 0 0 0 37-33.5l7.2-115.5h9c17.8 0 33-12.5 36.5-29.9l12-126.6c7-35.2-42.7-55-69.5-60.3zm0 0"/>
	<path fill="#FA5655" d="M512 214.1a74.5 74.5 0 0 0-60 118.3c-14.4 2.9-77.6 20-69.5 60.3l11.9 126.6a37.3 37.3 0 0 0 36.5 30h9l7.2 115.4c1.9 19 17.9 33.5 37 33.5H512zm0 0"/>
</svg>