<?xml version="1.0" encoding="UTF-8"?>
<svg xmlns="http://www.w3.org/2000/svg" width="64px" height="64px" viewBox="0 0 64 64" version="1.1">
	<title>present</title>
	<g id="Page-1" stroke="none" stroke-width="1" fill="none" fill-rule="evenodd">
		<g id="present">
			<g id="Group-3">
				<path d="M64 32c0 17.673-14.327 32-32 32C14.327 64 0 49.673 0 32 0 14.327 14.327 0 32 0c17.673 0 32 14.327 32 32" id="Fill-1" fill="#73BBA3" />
			</g>
			<path d="M48 54H28v-2h20a4 4 0 0 0 4-4v2a4 4 0 0 1-4 4m-24 0h-8a4 4 0 0 1-4-4V18v30a4 4 0 0 0 4 4h8v2" id="Fill-4" fill="#629986" />
			<path d="M52 48a4 4 0 0 1-4 4H16a4 4 0 0 1-4-4V16a4 4 0 0 1 4-4h32a4 4 0 0 1 4 4v32" id="Fill-5" fill="#B85756" />
			<path id="Fill-6" fill="#568071" d="M24 54h4v-2h-4z" />
			<path d="M52 34H30.597a15.316 15.316 0 0 0-1.256-.932c2.091-.004 4.011-.185 5.54-1.068H52v2m-36.968 0H12v-4 2h5.158a5.536 5.536 0 0 0-1.276.951 6.456 6.456 0 0 0-.85 1.049" id="Fill-7" fill="#974D4C" />
			<path id="Fill-8" fill="#F0CB83" d="M24 52h4V12h-4z" />
			<path id="Fill-9" fill="#F0CB83" d="M12 32h40v-4H12z" />
			<path d="M20.425 43.919A6.426 6.426 0 0 1 15.032 34H24v8.834a6.415 6.415 0 0 1-3.575 1.085M22.66 34c-2.546 0-3.895.311-4.657 1.073a3.429 3.429 0 0 0 0 4.843 3.402 3.402 0 0 0 2.422 1.003c.914 0 1.774-.356 2.421-1.003 1.078-1.078 1.114-3.289 1.057-5.9-.42-.009-.835-.016-1.243-.016" id="Fill-10" fill="#974D4C" />
			<path d="M33.417 43.584a1.5 1.5 0 0 1-1.5-1.5c0-3.102-2.608-5.358-3.917-6.295V34h2.597c1.824 1.501 4.32 4.256 4.32 8.084a1.5 1.5 0 0 1-1.5 1.5" id="Fill-11" fill="#974D4C" />
			<path d="M30.597 34H28v-2h6.881c-1.529.883-3.449 1.064-5.54 1.068.33.219.769.531 1.256.932M24 34h-8.968c.241-.371.524-.723.85-1.049.387-.387.815-.7 1.276-.951H24v2" id="Fill-12" fill="#7D4241" />
			<path d="M24 42.834V32h4v3.789c-.429-.307-.719-.472-.73-.479a1.46 1.46 0 0 1-.352-.283c.016 2.785-.23 5.29-1.951 7.01a6.477 6.477 0 0 1-.967.797" id="Fill-13" fill="#C1A56E" />
			<path d="M37.755 28h-3.151a3.431 3.431 0 0 0-.693-3.846 3.402 3.402 0 0 0-2.421-1.003c-.915 0-1.775.356-2.422 1.003-.78.78-1.015 2.155-1.063 3.846H28v-6.82a6.412 6.412 0 0 1 3.49-1.029c1.644 0 3.288.627 4.543 1.882A6.418 6.418 0 0 1 37.755 28" id="Fill-14" fill="#974D4C" />
			<path d="M28 28h-2.994c.061-2.364.438-4.465 1.941-5.967.327-.327.68-.612 1.053-.853V28" id="Fill-15" fill="#C1A56E" />
			<path d="M22.515 28h-4.1c-.837-1.173-1.486-2.594-1.671-4.278a1.502 1.502 0 0 1 1.489-1.664c.754 0 1.409.567 1.494 1.336.222 2.026 1.524 3.565 2.788 4.606" id="Fill-16" fill="#974D4C" />
			<path d="M34.881 32H17.158c1.249-.681 2.749-.915 4.383-.978-1.022-.713-2.191-1.713-3.126-3.022h4.1a12.158 12.158 0 0 0 2.488 1.58c-.008-.537-.01-1.065.003-1.58h2.999a42.88 42.88 0 0 0 .006 2.054c.42.009.835.016 1.243.016 2.546 0 3.895-.311 4.657-1.073.297-.297.528-.636.693-.997h3.151a6.397 6.397 0 0 1-1.722 3.118 5.522 5.522 0 0 1-1.152.882" id="Fill-17" fill="#C1A56E" />
			<path d="M31.49 18.151a6.4 6.4 0 0 0-4.543 1.882c-2.509 2.509-1.882 6.684-1.882 10.967 1.428 0 2.844.07 4.19.07 2.692 0 5.105-.279 6.778-1.952a6.424 6.424 0 0 0-4.543-10.967zm0 3c.914 0 1.774.356 2.421 1.003a3.429 3.429 0 0 1 0 4.843c-.762.762-2.111 1.073-4.656 1.073-.409 0-.824-.007-1.244-.016-.057-2.612-.021-4.822 1.057-5.9a3.402 3.402 0 0 1 2.422-1.003z" id="Fill-18" fill="#F0CB83" />
			<path d="M22.66 29c-2.692 0-5.106.279-6.778 1.951a6.425 6.425 0 0 0 9.086 9.086c2.508-2.509 1.881-6.684 1.881-10.967-1.427 0-2.843-.07-4.189-.07zm0 3c.408 0 .823.007 1.243.016.057 2.611.021 4.822-1.057 5.9a3.402 3.402 0 0 1-2.421 1.003 3.402 3.402 0 0 1-2.422-1.003 3.429 3.429 0 0 1 0-4.843C18.765 32.311 20.114 32 22.66 32z" id="Fill-19" fill="#F0CB83" />
			<path d="M33.417 41.583a1.5 1.5 0 0 1-1.5-1.5c0-4.118-4.601-6.747-4.647-6.772a1.504 1.504 0 0 1-.579-2.04 1.498 1.498 0 0 1 2.035-.583c.253.14 6.191 3.496 6.191 9.395a1.5 1.5 0 0 1-1.5 1.5" id="Fill-20" fill="#F0CB83" />
			<path d="M24.502 30.5c-.192 0-.389-.037-.578-.116-.267-.112-6.534-2.798-7.18-8.662a1.5 1.5 0 1 1 2.983-.328c.453 4.126 5.306 6.202 5.355 6.222a1.501 1.501 0 0 1-.58 2.884" id="Fill-21" fill="#F0CB83" />
		</g>
	</g>
	<metadata>
		<rdf:RDF xmlns:rdf="http://www.w3.org/1999/02/22-rdf-syntax-ns#" xmlns:dc="http://purl.org/dc/elements/1.1/">
			<rdf:Description about="https://iconscout.com/legal#licenses" dc:title="present" dc:description="present" dc:publisher="Iconscout" dc:date="2017-09-25" dc:format="image/svg+xml" dc:language="en">
				<dc:creator>
					<rdf:Bag>
						<rdf:li>Elegant Themes</rdf:li>
					</rdf:Bag>
				</dc:creator>
			</rdf:Description>
		</rdf:RDF>
	</metadata>
</svg>