<svg xmlns="http://www.w3.org/2000/svg" width="1024" height="1024" viewBox="0 0 1024 1024">
	<path fill="#73BBA3" d="M1024 512A512 512 0 1 1 0 512a512 512 0 0 1 1024 0"/>
	<path fill="#629986" d="M768 864H448v-32h320a64 64 0 0 0 64-64v32a64 64 0 0 1-64 64m-384 0H256a64 64 0 0 1-64-64V288v480a64 64 0 0 0 64 64h128v32"/>
	<path fill="#B85756" d="M832 768a64 64 0 0 1-64 64H256a64 64 0 0 1-64-64V256a64 64 0 0 1 64-64h512a64 64 0 0 1 64 64v512"/>
	<path fill="#568071" d="M384 864h64v-32h-64zm0 0"/>
	<path fill="#974D4C" d="M832 544H489.6a245.2 245.2 0 0 0-20.1-15c33.4 0 64.1-2.9 88.6-17H832v32m-591.5 0H192v-64 32h82.5c-7.5 4-14.4 9.2-20.4 15.2-5.1 5.1-9.7 10.7-13.6 16.8"/>
	<path fill="#F0CB83" d="M384 832h64V192h-64zm0 0"/>
	<path fill="#F0CB83" d="M192 512h640v-64H192zm0 0"/>
	<path fill="#974D4C" d="M326.8 702.7A102.8 102.8 0 0 1 240.5 544H384v141.3a102.7 102.7 0 0 1-57.2 17.4M362.6 544c-40.8 0-62.4 5-74.6 17.2a54.9 54.9 0 0 0 77.5 77.5c17.3-17.3 17.9-52.7 17-94.4l-20-.3M534.7 697.3a24 24 0 0 1-24-24c0-49.6-41.8-85.7-62.7-100.7V544h41.6c29.1 24 69 68.1 69 129.3a24 24 0 0 1-24 24"/>
	<path fill="#7D4241" d="M489.6 544H448v-32h110.1c-24.5 14.1-55.2 17-88.6 17 5.2 3.6 12.3 8.6 20 15M384 544H240.5c3.9-6 8.4-11.6 13.6-16.8 6.2-6.2 13-11.2 20.4-15.2H384v32"/>
	<path fill="#C1A56E" d="M384 685.3V512h64v60.6c-6.9-4.9-11.5-7.5-11.7-7.6-2-1.3-4-2.8-5.6-4.6.2 44.6-3.7 84.7-31.2 112.2-4.8 4.7-10 9-15.5 12.7"/>
	<path fill="#974D4C" d="M604 448h-50.3a54.9 54.9 0 0 0-88.6-61.5c-12.5 12.4-16.3 34.4-17 61.5h-.1V338.9a102.6 102.6 0 0 1 128.5 13.6c25 25 35.4 61 27.6 95.5"/>
	<path fill="#C1A56E" d="M448 448h-47.9c1-37.8 7-71.4 31-95.5 5.3-5.2 11-9.8 16.9-13.6V448"/>
	<path fill="#974D4C" d="M360.2 448h-65.6a144 144 0 0 1-26.7-68.4 24 24 0 0 1 47.7-5.3c3.6 32.4 24.4 57 44.6 73.7"/>
	<path fill="#C1A56E" d="M558.1 512H274.5c20-10.9 44-14.6 70.2-15.6a206.9 206.9 0 0 1-50-48.4h65.5c12.2 10 25.6 18.5 39.8 25.3 0-8.6-.1-17 .1-25.3h48c-.3 11-.2 22 0 32.9l20 .2c40.7 0 62.3-5 74.5-17.1a54.7 54.7 0 0 0 11-16h50.5a102.3 102.3 0 0 1-27.6 49.9 88.3 88.3 0 0 1-18.4 14.1"/>
	<path fill="#F0CB83" d="M503.8 290.4c-27.2 0-53.4 10.8-72.6 30.1C391 360.7 401 427.5 401 496c22.9 0 45.5 1.1 67 1.1 43.2 0 81.8-4.4 108.5-31.2a102.8 102.8 0 0 0-72.7-175.5zm0 48a54.9 54.9 0 0 1 38.7 93.5c-12.1 12.2-33.7 17.2-74.4 17.2-6.6 0-13.2 0-20-.2-.8-41.8-.3-77.2 17-94.4a54.4 54.4 0 0 1 38.7-16zm0 0"/>
	<path fill="#F0CB83" d="M362.6 464c-43.1 0-81.7 4.5-108.5 31.2a102.8 102.8 0 0 0 145.4 145.4c40.1-40.2 30-107 30-175.5-22.7 0-45.4-1.1-67-1.1zm0 48l19.8.3c1 41.7.4 77.1-16.9 94.4a54.4 54.4 0 0 1-77.5 0 54.9 54.9 0 0 1 0-77.5c12.2-12.2 33.8-17.2 74.6-17.2zm0 0"/>
	<path fill="#F0CB83" d="M534.7 665.3a24 24 0 0 1-24-24c0-65.9-73.6-108-74.4-108.3a24 24 0 1 1 23.3-42c4 2.2 99 56 99 150.3a24 24 0 0 1-24 24M392 488c-3 0-6.2-.6-9.2-1.9-4.3-1.7-104.6-44.7-114.9-138.5a24 24 0 0 1 47.7-5.3c7.3 66 85 99.2 85.7 99.6A24 24 0 0 1 392 488"/>
</svg>