<svg xmlns="http://www.w3.org/2000/svg" width="1024" height="1024" viewBox="0 0 1024 1024">
	<path fill="#76ABC4" d="M1024 512A512 512 0 1 1 0 512a512 512 0 0 1 1024 0"/>
	<path fill="#638DA0" d="M512 896a352.4 352.4 0 0 1-352-352c0-194.1 157.9-352 352-352s352 157.9 352 352a350 350 0 0 1-63 201 32 32 0 0 1-40.8 10.2 267 267 0 0 1-102.4-102.4A182.1 182.1 0 1 1 630.6 406v-1.3a32 32 0 0 1 64 0v140.6c0 69.4 42.3 114.3 70.4 136.5A288.3 288.3 0 0 0 512 256a288.3 288.3 0 0 0-288 288 288.3 288.3 0 0 0 419.8 256.1 32 32 0 0 1 29.4 57A353 353 0 0 1 512 896m0-470.1c-65.1 0-118.1 53-118.1 118.1s53 118.1 118.1 118.1 118.1-53 118.1-118.1-53-118.1-118.1-118.1"/>
	<path fill="#FFFFFE" d="M512 864a352.4 352.4 0 0 1-352-352c0-194.1 157.9-352 352-352s352 157.9 352 352c0 72.3-21.8 141.9-63 201a32 32 0 0 1-40.8 10.2c-5.3-2.7-129.5-68-129.5-209.9V372.7a32 32 0 0 1 64 0v140.6c0 69.4 42.2 114.3 70.3 136.5A288.3 288.3 0 0 0 512 224a288.3 288.3 0 0 0-288 288 288.3 288.3 0 0 0 419.8 256.1 32 32 0 1 1 29.4 57A353 353 0 0 1 512 864"/>
	<path fill="#FFFFFE" d="M512 329.9a182.1 182.1 0 1 0 0 364.2 182.1 182.1 0 0 0 0-364.2zm0 64c65.1 0 118.1 53 118.1 118.1s-53 118.1-118.1 118.1-118.1-53-118.1-118.1 53-118.1 118.1-118.1zm0 0"/>
</svg>