<svg xmlns="http://www.w3.org/2000/svg" xmlns:xlink="http://www.w3.org/1999/xlink" width="1024" height="1024" viewBox="0 0 1024 1024">
  <defs>
    <filter id="a" width="100%" height="100%" x="0%" y="0%" filterUnits="objectBoundingBox">
      <feColorMatrix in="SourceGraphic" values="0 0 0 0 1 0 0 0 0 1 0 0 0 0 1 0 0 0 1 0"/>
    </filter>
    <mask id="e">
      <use filter="url(#a)" xlink:href="#b"/>
    </mask>
    <clipPath id="c">
      <path d="M0 0h1024v1024H0z"/>
    </clipPath>
    <g id="d" clip-path="url(#c)">
      <path fill="#382673" d="M864 744H160l56-56h592zm0 0"/>
    </g>
  </defs>
  <path fill="#382673" d="M992 512a480 480 0 1 1-960 0 480 480 0 0 1 960 0zm0 0"/>
  <path fill="#473080" d="M912 512a400 400 0 1 1-800 0 400 400 0 0 1 800 0zm0 0"/>
  <path fill="#FFFFFF" d="M864 744H160l56-56h592zm0 0"/>
  <use mask="url(#e)" xlink:href="#d"/>
  <path fill="#FFFFFF" d="M160 744h704v56H160zm0 0"/>
  <path fill="#00A58C" d="M440 680L216 472l56-40h168zm0 0"/>
  <path fill="#00C2A9" d="M216 472h224v248H216zm0 0"/>
  <path fill="#D44A90" d="M816 552L592 680V512h168zm0 0"/>
  <path fill="#F15A9E" d="M592 552h224v168H592zm0 0"/>
  <path fill="#FFDE39" d="M400 384h224v336H400zm0 0"/>
  <path fill="#FEC632" d="M624 384H400l32-48h160zm0 0"/>
  <path fill="#FFFFFF" d="M512 286.4l40.8 21.6c5.6 3.2 12.8-1.6 12-8.8l-8-45.6 32.8-32c4.8-4.8 2.4-12.8-4.8-13.6l-45.6-6.4-20-41.6c-3.2-6.4-11.2-6.4-14.4 0l-20 40.8-45.6 7.2c-6.4.8-9.6 8.8-4.8 13.6l32.8 32-8 45.6c-.8 6.4 5.6 12 12 8.8zm0 0M538.4 621.6h-35.2v-68.8c0-8 0-16 .8-23.2-2.4 2.4-4.8 5.6-8 8l-14.4 12-19.2-21.6 44.8-36h31.2zm0 0"/>
  <path fill="#0CAFE8" d="M160 839.2a480.1 480.1 0 0 0 352 154.4c139.2 0 264-60 352-154.4V800H160zm0 0"/>
</svg>