<?xml version="1.0" encoding="UTF-8"?>
<svg id="Layer_1" style="enable-background:new 0 0 128 128;" version="1.1" viewBox="0 0 128 128" xml:space="preserve" xmlns="http://www.w3.org/2000/svg">
    <style type="text/css">
		.st0{fill:#382673;}
		.st1{fill:#473080;}
		.st2{fill:#007BC6;}
		.st3{fill:#D44A90;}
		.st4{fill:#A72973;}
		.st5{fill:#F15A9E;}
		.st6{opacity:0.4;fill:#0CAFE8;}
		.st7{opacity:0.5;fill:#382673;}
		.st8{fill:#0CAFE8;}
		.st9{fill:#0B90D3;}
		.st10{opacity:0.3;fill:none;stroke:#FFFFFF;stroke-width:2;stroke-linecap:round;stroke-linejoin:round;stroke-miterlimit:10;}
		.st11{fill:#8F58B2;}
		.st12{fill:#6E4CA0;}
		.st13{fill:#F375AD;}
		.st14{fill:#FFDE39;}
		.st15{fill:#FEC632;}
		.st16{fill:#F9A74E;}
		.st17{fill:#DA6A2D;}
		.st18{fill:#9EDD9A;}
		.st19{fill:#00C2A9;}
		.st20{fill:#00A58C;}
		.st21{fill:#037C68;}
		.st22{fill:#9AC0DB;}
		.st23{fill:#FFFFFF;}
		.st24{opacity:0.2;fill:#382673;}
		.st25{opacity:0.4;fill:#473080;}
		.st26{opacity:0.1;fill:#382673;}
		.st27{fill:none;stroke:#FFDE39;stroke-width:10;stroke-linecap:round;stroke-linejoin:round;stroke-miterlimit:10;}
		.st28{fill:none;stroke:#F9A74E;stroke-width:4;stroke-linecap:round;stroke-linejoin:round;stroke-miterlimit:10;}
		.st29{fill:none;stroke:#FEC632;stroke-width:4;stroke-linecap:round;stroke-linejoin:round;stroke-miterlimit:10;}
		.st30{fill:none;stroke:#00A58C;stroke-width:2;stroke-linecap:round;stroke-linejoin:round;stroke-miterlimit:10;}
		.st31{fill:none;stroke:#D44A90;stroke-width:3;stroke-linecap:round;stroke-linejoin:round;stroke-miterlimit:10;}
		.st32{fill:none;stroke:#007BC6;stroke-width:2.2439;stroke-miterlimit:10;}
		.st33{fill:none;stroke:#F15A9E;stroke-width:3;stroke-linecap:round;stroke-miterlimit:10;}
		.st34{opacity:0.2;fill:none;stroke:#382673;stroke-width:2;stroke-linecap:round;stroke-linejoin:round;stroke-miterlimit:10;}
		.st35{fill:none;stroke:#F15A9E;stroke-width:2;stroke-linecap:round;stroke-miterlimit:10;}
		.st36{fill:none;stroke:#F9A74E;stroke-width:2;stroke-linecap:round;stroke-linejoin:round;stroke-miterlimit:10;}
		.st37{fill:none;stroke:#FFFFFF;stroke-width:2;stroke-linecap:round;stroke-miterlimit:10;}
		.st38{opacity:0.4;fill:#382673;}
	</style>
    <circle class="st0" cx="64" cy="64" r="60" />
    <circle class="st1" cx="64" cy="64" r="50" />
    <polygon class="st23" points="108,93 20,93 27,86 101,86 " />
    <polygon class="st24" points="108,93 20,93 27,86 101,86 " />
    <rect class="st23" height="7" width="88" x="20" y="93" />
    <polygon class="st20" points="55,85 27,59 34,54 55,54 " />
    <rect class="st19" height="31" width="28" x="27" y="59" />
    <polygon class="st3" points="102,69 74,85 74,64 95,64 " />
    <rect class="st5" height="21" width="28" x="74" y="69" />
    <rect class="st14" height="42" width="28" x="50" y="48" />
    <polygon class="st15" points="78,48 50,48 54,42 74,42 " />
    <path class="st23" d="M64,35.8l5.1,2.7c0.7,0.4,1.6-0.2,1.5-1.1l-1-5.7l4.1-4c0.6-0.6,0.3-1.6-0.6-1.7l-5.7-0.8L64.9,20  c-0.4-0.8-1.4-0.8-1.8,0l-2.5,5.1L54.9,26c-0.8,0.1-1.2,1.1-0.6,1.7l4.1,4l-1,5.7c-0.1,0.8,0.7,1.5,1.5,1.1L64,35.8z" />
    <g>
        <path class="st23" d="M67.3,77.7h-4.4v-8.6c0-1,0-2,0.1-2.9c-0.3,0.3-0.6,0.7-1,1l-1.8,1.5L57.8,66l5.6-4.5h3.9V77.7z" />
    </g>
    <path class="st8" d="M20,104.9c11,11.8,26.6,19.3,44,19.3s33-7.5,44-19.3V100H20V104.9z" />
</svg>