<svg xmlns="http://www.w3.org/2000/svg" width="1024" height="1024" viewBox="0 0 1024 1024">
	<title>VirtualChest</title>
	<circle id="background" fill="#445566" cx="512" cy="512" r="480" stroke="#2e3440" stroke-width="64"/>
	<path fill="none" stroke="#99FF99" stroke-width="32" stroke-linecap="round" stroke-dasharray="2048, 128"	stroke-dashoffset="1024" d="M 512 32 a 480 480 0 0 1 0 960 a 480 480 0 0 1 0 -960"/>
	<g id="simbol" xmlns:xlink="http://www.w3.org/1999/xlink">
		<defs>
			<path id="cloud" d="M768 480a255.8 255.8 0 0 0-150-232.8c-27.5-11.6-42 9.5-42 26.7v136c0 13.2 10.8 22.1 24 22.1h49c23.5 0 30.1 18 14.6 37.8L540.2 627c-15.5 19.7-40.9 19.7-56.4 0L360.4 469.8c-15.5-19.8-9-37.8 14.6-37.8h49c13.2 0 24-8.9 24-22.1v-136c0-17.7-24-34.3-44-25.8h-.2a256.6 256.6 0 0 0-140 170A159.9 159.9 0 0 0 288 736h480a128 128 0 0 0 0-256"/>
		</defs>
		<use xlink:href="#cloud" opacity="0.2" y="32"/>
		<use xlink:href="#cloud" fill="#99FF99"/>
	</g>
</svg>