<svg xmlns="http://www.w3.org/2000/svg" width="1024" height="1024" viewBox="0 0 1024 1024">
	<circle id="background" fill="#B85756" cx="512" cy="512" r="512"/>
	<path fill="#974D4C" d="M639.7 178.8l.3-2.5v1.6l-.3.9M384.3 178.9l-.3-1v-1.6l.3 2.6M768 768H288a160 160 0 0 1-24.1-318 256.6 256.6 0 0 1 140-169.9c3.8-1.6 7.6-2.3 11.5-2.3 16.7 0 32.6 13.7 32.6 28v136c0 13.3-10.8 22.2-24 22.2h-49c-23.5 0-30.1 18-14.6 37.8L483.8 659a36 36 0 0 0 28.2 14.8 36 36 0 0 0 28.2-14.8l123.4-157.3c15.5-19.8 9-37.8-14.6-37.8h-49c-13.2 0-24-8.9-24-22.1v-136c0-13.8 9.3-30 27.1-30 4.5 0 9.5 1 15 3.3A255.8 255.8 0 0 1 768 512a128 128 0 0 1 0 256"/>
	<path fill="#FFFFFE" d="M768 480a255.8 255.8 0 0 0-150-232.8c-27.5-11.6-42 9.5-42 26.7v136c0 13.2 10.8 22.1 24 22.1h49c23.5 0 30.1 18 14.6 37.8L540.2 627c-15.5 19.7-40.9 19.7-56.4 0L360.4 469.8c-15.5-19.8-9-37.8 14.6-37.8h49c13.2 0 24-8.9 24-22.1v-136c0-17.7-24-34.3-44-25.8h-.2a256.6 256.6 0 0 0-140 170A159.9 159.9 0 0 0 288 736h480a128 128 0 0 0 0-256"/>
</svg>