<?xml version="1.0" encoding="UTF-8"?>
<svg xmlns="http://www.w3.org/2000/svg" xmlns:xlink="http://www.w3.org/1999/xlink" width="64px" height="64px" viewBox="0 0 64 64" version="1.1">
	<title>money</title>
	<g id="Page-1" stroke="none" stroke-width="1" fill="none" fill-rule="evenodd">
		<g id="money">
			<g id="Group-3">
				<path d="M0 32c0 17.673 14.327 32 32 32 17.673 0 32-14.327 32-32C64 14.327 49.673 0 32 0 14.327 0 0 14.327 0 32" id="Fill-1" fill="#4C5665" />
			</g>
			<path d="M49.969 49.031c-.107 0-.206-.023-.31-.031H18.31c-.104.008-.204.031-.31.031A4.031 4.031 0 0 1 13.969 45c0-.106.023-.206.031-.31v-.189c.107.061.217.118.33.169A4.031 4.031 0 0 0 18.504 47h30.96A4.031 4.031 0 0 0 54 43.007V43v2a4.033 4.033 0 0 1-4.031 4.031" id="Fill-4" fill="#414A55" />
			<path d="M18 46c-1.654 0-3-1.346-3-3V27c0-1.654 1.346-3 3-3h32c1.654 0 3 1.346 3 3v16c0 1.654-1.346 3-3 3H18" id="Fill-5" fill="#73BBA3" />
			<path d="M50 23H18a4 4 0 0 0-4 4v16a4 4 0 0 0 4 4h32a4 4 0 0 0 4-4V27a4 4 0 0 0-4-4m0 2c1.103 0 2 .897 2 2v16c0 1.103-.897 2-2 2H18c-1.103 0-2-.897-2-2V27c0-1.103.897-2 2-2h32" id="Fill-6" fill="#DEDECA" />
			<path d="M40 35a6 6 0 1 1-12 0 6 6 0 0 1 12 0" id="Fill-7" fill="#4C5665" />
			<path d="M45.937 27.031a4.03 4.03 0 1 0 8.062 0 4.03 4.03 0 0 0-8.062 0" id="Fill-8" fill="#DEDECA" />
			<path d="M13.969 27.031a4.03 4.03 0 1 0 8.061 0 4.03 4.03 0 0 0-8.061 0" id="Fill-9" fill="#DEDECA" />
			<path d="M45.937 43A4.032 4.032 0 1 0 54 42.999a4.032 4.032 0 0 0-8.063.001" id="Fill-10" fill="#DEDECA" />
			<path d="M13.969 43a4.031 4.031 0 1 0 8.063 0 4.031 4.031 0 0 0-8.063 0" id="Fill-11" fill="#DEDECA" />
			<path d="M44.078 42H21.906a4.039 4.039 0 0 0-2.236-2.67A4.031 4.031 0 0 0 16 36.969v-6.437A4.03 4.03 0 0 0 21.483 25h22.455l-.001.031c0 1.631.969 3.035 2.362 3.67A4.038 4.038 0 0 0 49 30.945v6.174a3.994 3.994 0 0 0-1.031-.15A4.032 4.032 0 0 0 43.937 41c0 .347.058.679.141 1m-15.202-3.876a6 6 0 1 0 8.248-8.248 6 6 0 1 0-8.248 8.248" id="Fill-12" fill="#629986" />
			<path d="M15 37.109v-7.385c.287.32.625.593 1 .808v6.437c-.347 0-.678.057-1 .14M43.938 25H21.483c-.22-.376-.5-.714-.825-1h23.429a4.034 4.034 0 0 0-.149 1" id="Fill-13" fill="#B3B2A4" />
			<path d="M34 41a5.997 5.997 0 0 1-5.124-2.876 6 6 0 0 0 8.248-8.248A6 6 0 0 1 34 41" id="Fill-14" fill="#414A55" />
			<path d="M49 30.945a4.038 4.038 0 0 1-2.701-2.244 4.012 4.012 0 0 0 1.67.362c.358 0 .7-.062 1.031-.15v2.032" id="Fill-15" fill="#B3B2A4" />
			<path d="M18 31.062a4.005 4.005 0 0 1-3-1.338v-.802c.322.083.653.141 1 .141a4.032 4.032 0 0 0 4.031-4.032c0-.358-.062-.7-.15-1.031h.777a4.021 4.021 0 0 1 1.373 3.031A4.03 4.03 0 0 1 18 31.062" id="Fill-16" fill="#B3B2A4" />
			<path d="M21.906 42h-2.015c.083-.321.14-.653.14-1 0-.596-.129-1.161-.361-1.67A4.039 4.039 0 0 1 21.906 42" id="Fill-17" fill="#B3B2A4" />
			<path d="M14 44.501A4.029 4.029 0 0 1 11.969 41c0-.106.023-.206.031-.31V25.341c-.008-.104-.031-.203-.031-.31A4.033 4.033 0 0 1 16 21h32a4 4 0 0 1 3.646 2.354A3.969 3.969 0 0 0 50 23H17.993A4.031 4.031 0 0 0 14 27.536v.991a3.989 3.989 0 0 0-.031.504c0 .107.023.206.031.31v13.155a3.989 3.989 0 0 0 0 1.008v.997" id="Fill-18" fill="#414A55" />
			<path d="M14.33 44.67a3.94 3.94 0 0 1-.33-.169v-.997c.051.411.164.803.33 1.166M14 42.496V29.341c-.008-.104-.031-.203-.031-.31 0-.171.01-.339.031-.504v13.969" id="Fill-19" fill="#3A4048" />
			<path d="M46.468 45H21.501c.337-.589.53-1.272.53-2 0-.345-.043-.68-.125-1h22.172a3.977 3.977 0 0 1-.141-1 4.032 4.032 0 0 1 4.032-4.031c.358 0 .7.062 1.031.15v-6.174c.31.077.635.117.969.117.74 0 1.435-.199 2.031-.548v9.003A4.032 4.032 0 0 0 46.468 45M16 39.499v-2.53c1.631 0 3.035.968 3.67 2.361a4.014 4.014 0 0 0-1.67-.361c-.728 0-1.411.193-2 .53m30.299-10.798a4.032 4.032 0 0 1-2.362-3.67l.001-.031h2.548a4.012 4.012 0 0 0-.549 2.031c0 .596.13 1.162.362 1.67" id="Fill-20" fill="#629986" />
			<path d="M46.468 45H21.501h24.967M14 42.496v-14.96a4.018 4.018 0 0 0 1 2.188v7.385c.322-.083.653-.14 1-.14v2.53a4.033 4.033 0 0 0-2 2.997m38-2.979v-9.003 9.003M46.486 25h-2.548c.003-.347.064-.678.149-1H20.658A4.02 4.02 0 0 0 18 23h-.007H50c.587 0 1.144.126 1.646.354a.061.061 0 0 1 .007.014A4.03 4.03 0 0 0 46.486 25" id="Fill-21" fill="#B3B2A4" />
			<path d="M49.969 31.062c-.334 0-.659-.04-.969-.117v-2.032c-.331.088-.673.15-1.031.15-.596 0-1.162-.13-1.67-.362a4.012 4.012 0 0 1-.362-1.67 4.03 4.03 0 0 1 5.716-3.663c.223.498.347 1.051.347 1.632v5.514a4.008 4.008 0 0 1-2.031.548" id="Fill-22" fill="#B3B2A4" />
			<path d="M15 29.724a4.018 4.018 0 0 1-1.031-2.693A4.031 4.031 0 0 1 17.993 23H18a4.02 4.02 0 0 1 2.658 1h-.777c.088.331.15.673.15 1.031A4.032 4.032 0 0 1 16 29.063c-.347 0-.678-.058-1-.141v.802" id="Fill-23" fill="#B3B2A4" />
			<path d="M47.969 45.031c-.106 0-.206-.023-.31-.031h-1.191A4.032 4.032 0 0 1 52 39.517V41a4.033 4.033 0 0 1-4.031 4.031" id="Fill-24" fill="#B3B2A4" />
			<path d="M16 45.031a4.014 4.014 0 0 1-1.67-.361 3.98 3.98 0 0 1-.361-1.67 4.033 4.033 0 0 1 5.701-3.67c.232.509.361 1.074.361 1.67 0 .347-.057.679-.14 1h2.015c.082.32.125.655.125 1 0 .728-.193 1.411-.53 2H16.31c-.104.008-.204.031-.31.031" id="Fill-25" fill="#B3B2A4" />
			<path d="M28.876 38.124a6 6 0 1 1 8.248-8.248 6 6 0 0 0-8.248 8.248" id="Fill-26" fill="#629986" />
			<path d="M32 39a5.973 5.973 0 0 1-3.124-.876 6 6 0 0 1 8.248-8.248A6 6 0 0 1 32 39" id="Fill-27" fill="#414A55" />
			<path d="M14 42c-1.654 0-3-1.346-3-3V23c0-1.654 1.346-3 3-3h32c1.654 0 3 1.346 3 3v16c0 1.654-1.346 3-3 3H14" id="Fill-28" fill="#73BBA3" />
			<path d="M46 19H14a4 4 0 0 0-4 4v16a4 4 0 0 0 4 4h32a4 4 0 0 0 4-4V23a4 4 0 0 0-4-4zm0 2c1.103 0 2 .897 2 2v16c0 1.103-.897 2-2 2H14c-1.103 0-2-.897-2-2V23c0-1.103.897-2 2-2h32z" id="Fill-29" fill="#DEDECA" />
			<path d="M36 31a6 6 0 1 1-12 0 6 6 0 0 1 12 0" id="Fill-30" fill="#4C5665" />
			<path d="M41.937 23.031a4.032 4.032 0 1 0 8.064 0 4.032 4.032 0 0 0-8.064 0" id="Fill-31" fill="#DEDECA" />
			<path d="M9.969 23.031a4.032 4.032 0 1 0 8.063 0 4.032 4.032 0 0 0-8.063 0" id="Fill-32" fill="#DEDECA" />
			<path d="M41.937 39A4.032 4.032 0 1 0 50 38.999a4.032 4.032 0 0 0-8.063.001" id="Fill-33" fill="#DEDECA" />
			<path d="M9.969 39a4.031 4.031 0 1 0 8.063 0 4.031 4.031 0 0 0-8.063 0" id="Fill-34" fill="#DEDECA" />
		</g>
	</g>
	<metadata>
		<rdf:RDF xmlns:rdf="http://www.w3.org/1999/02/22-rdf-syntax-ns#" xmlns:rdfs="http://www.w3.org/2000/01/rdf-schema#" xmlns:dc="http://purl.org/dc/elements/1.1/">
			<rdf:Description about="https://iconscout.com/legal#licenses" dc:title="money" dc:description="money" dc:publisher="Iconscout" dc:date="2017-09-25" dc:format="image/svg+xml" dc:language="en">
				<dc:creator>
					<rdf:Bag>
						<rdf:li>Elegant Themes</rdf:li>
					</rdf:Bag>
				</dc:creator>
			</rdf:Description>
		</rdf:RDF>
	</metadata>
</svg>