<svg xmlns="http://www.w3.org/2000/svg" width="1024" height="1024" viewBox="0 0 1024 1024">
	<circle id="background" fill="#4C5665" cx="512" cy="512" r="512"/>
	<path opacity="0.2" d="M799.5 784.5c-1.7 0-3.3-.4-5-.5H293c-1.7.1-3.3.5-5 .5a64.5 64.5 0 0 1-64.5-64.5c0-1.7.4-3.3.5-5v-3c1.7 1 3.5 1.9 5.3 2.7A64.5 64.5 0 0 0 296 752h495.3a64.5 64.5 0 0 0 72.6-63.9v-.1 32a64.5 64.5 0 0 1-64.5 64.5"/>
	<path fill="#73BBA3" d="M288 736a48 48 0 0 1-48-48V432a48 48 0 0 1 48-48h512a48 48 0 0 1 48 48v256a48 48 0 0 1-48 48H288"/>
	<path fill="#DEDECA" d="M800 368H288a64 64 0 0 0-64 64v256a64 64 0 0 0 64 64h512a64 64 0 0 0 64-64V432a64 64 0 0 0-64-64m0 32a32 32 0 0 1 32 32v256a32 32 0 0 1-32 32H288a32 32 0 0 1-32-32V432a32 32 0 0 1 32-32h512"/>
	<path fill="#DEDECA" d="M735 432.5a64.5 64.5 0 1 0 129 0 64.5 64.5 0 0 0-129 0M223.5 432.5a64.5 64.5 0 1 0 129 0 64.5 64.5 0 0 0-129 0M735 688a64.5 64.5 0 1 0 129 2 64.5 64.5 0 0 0-129-2M223.5 688a64.5 64.5 0 1 0 129 0 64.5 64.5 0 0 0-129 0"/>
	<path opacity="0.2" d="M544 656a96 96 0 0 1-82-46 96 96 0 0 0 132-132 96 96 0 0 1-50 178"/>
	<path opacity="0.2" d="M224 712a64.5 64.5 0 0 1-32.5-56c0-1.7.4-3.3.5-5V405.5c-.1-1.7-.5-3.3-.5-5A64.5 64.5 0 0 1 256 336h512a64 64 0 0 1 58.3 37.7A63.5 63.5 0 0 0 800 368H287.9a64.5 64.5 0 0 0-63.9 72.6v15.8a64 64 0 0 0-.5 8.1c0 1.7.4 3.3.5 5v210.4c-.7 5.4-.7 10.8 0 16.2v16"/>
	<path opacity="0.2" d="M743.5 720H344a64.3 64.3 0 0 0 6.5-48h354.7a64.5 64.5 0 0 1 78.8-78.1v-98.8a64.4 64.4 0 0 0 48-6.9v144a64.5 64.5 0 0 0-88.5 87.8M256 632v-40.5a64.5 64.5 0 0 1 58.7 37.8A64.2 64.2 0 0 0 256 632m484.8-172.8a64.5 64.5 0 0 1-37.8-58.7v-.5h40.8a64.2 64.2 0 0 0-3 59.2"/>
	<path opacity="0.2" d="M743.5 720H344h399.5M224 680V440.5c1.6 13 7.2 25.2 16 35v118.1a63.7 63.7 0 0 1 16-2.2V632a64.5 64.5 0 0 0-32 48m608-47.7v-144 144M743.8 400H703c0-5.6 1-10.8 2.4-16H330.5a64.3 64.3 0 0 0-42.5-16h-.1H800a63.5 63.5 0 0 1 26.4 5.9 64.5 64.5 0 0 0-82.6 26.1"/>
	<path opacity="0.2" d="M799.5 497c-5.3 0-10.5-.6-15.5-1.9v-32.5a64.1 64.1 0 0 1-43.2-3.4 64.5 64.5 0 0 1 85.7-85.3c3.5 8 5.5 16.8 5.5 26.1v88.2c-9.9 5.8-21 8.8-32.5 8.8M240 475.6A64.5 64.5 0 0 1 287.9 368h.1c15.7 0 30.8 5.7 42.5 16h-12.4a64.5 64.5 0 0 1-78.1 78.8v12.8M767.5 720.5c-1.7 0-3.3-.4-5-.5h-19a64.5 64.5 0 0 1 88.5-87.7V656a64.5 64.5 0 0 1-64.5 64.5M256 720.5c-9.2 0-18.3-2-26.7-5.8a64.5 64.5 0 0 1 85.4-85.4 64.2 64.2 0 0 1 3.6 42.7h32.2a64.4 64.4 0 0 1-6.5 48h-83c-1.7.1-3.3.5-5 .5"/>
	<path opacity="0.2" d="M512 624c-17.6 0-35-4.8-50-14a96 96 0 0 1 132-132 96 96 0 0 1-82 146"/>
	<path fill="#73BBA3" d="M224 672a48 48 0 0 1-48-48V368a48 48 0 0 1 48-48h512a48 48 0 0 1 48 48v256a48 48 0 0 1-48 48H224"/>
	<path fill="#DEDECA" d="M736 304H224a64 64 0 0 0-64 64v256a64 64 0 0 0 64 64h512a64 64 0 0 0 64-64V368a64 64 0 0 0-64-64zm0 32a32 32 0 0 1 32 32v256a32 32 0 0 1-32 32H224a32 32 0 0 1-32-32V368a32 32 0 0 1 32-32zm0 0"/>
	<path fill="#4C5665" d="M576 496a96 96 0 1 1-192 0 96 96 0 0 1 192 0"/>
	<path fill="#DEDECA" d="M671 368.5a64.5 64.5 0 1 0 129 0 64.5 64.5 0 0 0-129 0M159.5 368.5a64.5 64.5 0 1 0 129 2 64.5 64.5 0 0 0-129-2M671 624a64.5 64.5 0 1 0 129 2 64.5 64.5 0 0 0-129-2M159.5 624a64.5 64.5 0 1 0 129 0 64.5 64.5 0 0 0-129 0"/>
</svg>