<svg xmlns="http://www.w3.org/2000/svg" width="1024" height="1024" viewBox="0 0 1024 1024">
	<!--
	[Color Info]
		"background"	nord0 (#2e3440)

		"banknote-background"	nord7 (#8fbcbb)
			L stroke			nord4 (#d8dee9)
		"banknote-borderball"	nord4 (#d8dee9)
		"banknote-centerball"	nord3 (#4c566a)
	-->
	<circle id="background" fill="#2e3440" cx="512" cy="512" r="512"/>
	<g id="simbol" xmlns:xlink="http://www.w3.org/1999/xlink">
		<defs>
			<rect id="banknote-background" x="178" y="320" width="608" height="352" rx="30" ry="30" stroke-width="32"/>
			<path id="banknote-borderball" d="M671 368.5a64.5 64.5 0 1 0 129 0 64.5 64.5 0 0 0-129 0M159.5 368.5a64.5 64.5 0 1 0 129 2 64.5 64.5 0 0 0-129-2M671 624a64.5 64.5 0 1 0 129 2 64.5 64.5 0 0 0-129-2M159.5 624a64.5 64.5 0 1 0 129 0 64.5 64.5 0 0 0-129 0"/>
			<path id="banknote-centerball" d="M576 496a96 96 0 1 1-192 0 96 96 0 0 1 192 0"/>
			<g id="banknote">
				<use xlink:href="#banknote-background" id="banknote-shadow" stroke="#000" opacity="0.2" x="32" y="32"/>

				<use xlink:href="#banknote-background" fill="#8fbcbb" stroke="#d8dee9"/>
				<use xlink:href="#banknote-borderball" fill="#d8dee9"/>
				<use xlink:href="#banknote-centerball" fill="#4c566a"/>
			</g>
		</defs>
		<use xlink:href="#banknote" x="64" y="64"/>
		<use xlink:href="#banknote"/>
	</g>
</svg>