<svg xmlns="http://www.w3.org/2000/svg" width="1024" height="1024" viewBox="0 0 1024 1024">
	<circle id="background" fill="#4C5665" cx="512" cy="512" r="512"/>
	<g id="simbol" xmlns:xlink="http://www.w3.org/1999/xlink">
		<defs>
			<path id="banknote-backgroud" d="M224 672a48 48 0 0 1-48-48V368a48 48 0 0 1 48-48h512a48 48 0 0 1 48 48v256a48 48 0 0 1-48 48H224"/>
			<path id="banknote-border" d="M736 304H224a64 64 0 0 0-64 64v256a64 64 0 0 0 64 64h512a64 64 0 0 0 64-64V368a64 64 0 0 0-64-64zm0 32a32 32 0 0 1 32 32v256a32 32 0 0 1-32 32H224a32 32 0 0 1-32-32V368a32 32 0 0 1 32-32zm0 0"/>
			<path id="banknote-centerball" d="M576 496a96 96 0 1 1-192 0 96 96 0 0 1 192 0"/>
			<path id="banknote-cornerball" d="M671 368.5a64.5 64.5 0 1 0 129 0 64.5 64.5 0 0 0-129 0M159.5 368.5a64.5 64.5 0 1 0 129 2 64.5 64.5 0 0 0-129-2M671 624a64.5 64.5 0 1 0 129 2 64.5 64.5 0 0 0-129-2M159.5 624a64.5 64.5 0 1 0 129 0 64.5 64.5 0 0 0-129 0"/>
			<g id="banknote-shadow" opacity="0.2">
				<use xlink:href="#banknote-backgroud"/>
				<use xlink:href="#banknote-border"/>
				<use xlink:href="#banknote-centerball"/>
				<use xlink:href="#banknote-cornerball"/>
			</g>
			<g id="banknote">
				<use xlink:href="#banknote-shadow" x="32" y="32"/>

				<use xlink:href="#banknote-backgroud" fill="#73BBA3"/>
				<use xlink:href="#banknote-border" fill="#DEDECA"/>
				<use xlink:href="#banknote-centerball" fill="#4C5665"/>
				<use xlink:href="#banknote-cornerball" fill="#DEDECA"/>
			</g>
		</defs>
		<use xlink:href="#banknote" x="64" y="64"/>
		<use xlink:href="#banknote"/>
	</g>
</svg>