<svg xmlns="http://www.w3.org/2000/svg" width="1024" height="1024">
    <g id="dirt">
        <rect id="dirt-background" fill="#bb8044" width="1024" height="1024"/>
        <g id="dirt-particle">
            <path fill="#b17940"
                  d="m713.33861,473.69509l55.91674,67.10021l-67.8989,55.11802l-55.11801,-67.10017l67.10017,-55.11806m59.11207,-473.69509l-10.38455,91.86316l-152.57306,-17.57377l8.787,-74.28939l154.17061,0m-772.45068,147.78009l0.79874,0l28.75723,121.41931l-29.55597,7.18922l0,-128.60853m618.28007,874.69861l8.78699,-78.28363l152.57285,17.57395l-6.39053,60.70968l-154.96931,0m404.19868,-746.09008l-91.86338,20.76915l-27.95838,-120.62045l119.82176,-28.75724l0,128.60854m-458.51783,300.35314l-118.22415,37.54424l-38.34293,-119.02285l119.02284,-37.54423l37.54424,119.02284m-390.61893,-269.19944l157.366,40.7394l-40.7394,158.16468l-157.36599,-41.53809l40.73939,-157.36599m676.59346,174.93977l81.47861,31.1537l-30.35484,82.27752l-82.27748,-31.95239l31.15371,-81.47883m-166.95168,224.46598l118.22415,-37.54406l37.54406,118.22398l-118.22415,37.54424l-37.54406,-118.22416m199.70281,83.87525l87.07062,8.787l-9.5859,87.07045l-86.27155,-8.787l8.78683,-87.07045"/>
            <path fill="#cd8c4a"
                  d="m741.29698,186.12301l-50.32508,70.29537l-71.09423,-50.32513l51.12394,-71.09423l70.29537,51.12399m-613.48714,-158.96354l35.1476,78.28362l-79.08232,35.94646l-35.94651,-79.08231l79.88123,-35.14777m47.12975,535.20385l69.49663,50.32508l-50.32508,70.29537l-70.29532,-51.12399l51.12377,-69.49646m-47.12975,419.37599l-85.47285,13.57975l-13.57993,-85.47289l85.47285,-13.57971l13.57993,85.47285m385.82583,-209.28863l78.28362,-35.9465l35.94646,79.88105l-79.08231,35.14777l-35.14777,-79.08232"/>
            <path fill="#9f6c39"
                  d="m418.57713,147.78009l-101.44907,110.23606l-110.23585,-101.44907l101.44902,-110.23606l110.2359,101.44907m15.97622,774.84714l-154.96935,-34.3489l34.3489,-156.56708l155.76817,35.14777l-35.14772,155.76821m430.55941,-542.39308l-59.91077,63.10615l-63.10614,-59.91081l59.91081,-63.1061l63.1061,59.91076"/>
            <path fill="#c48647"
                  d="m0,549.58226l32.7513,-3.99402l10.38438,86.27154l-43.13568,5.59162l0,-87.86914m1022.47875,87.86914l-43.13586,4.79297l-10.3846,-86.27158l53.52046,-6.39053l0,87.86914m-524.0204,-339.49476l86.27155,8.78699l-8.78683,86.27154l-86.27171,-8.78695l8.78699,-86.27158m-262.80908,500.85482l-73.49052,24.76317l-24.76322,-73.4907l73.4907,-25.56191l24.76304,74.28944"/>
        </g>
    </g>
    <g id="grass">
        <g id="grass-particle">
            <path fill="#28b162"
                  d="m0,321.12208l0,-65.50244l34.34891,-19.97024l135.79793,-81.47878l98.25369,58.31317l72.69183,43.13585l36.74537,-21.56801l134.20033,-79.88101l87.07046,51.92263l69.49663,42.337l12.78106,7.18939l139.792,-82.27765l31.15353,-19.17137l23.16561,14.37862l121.41932,71.89292l25.56208,15.17748l0,65.50244l-170.14701,-127.80984l-170.94553,127.80984l-169.34815,-127.80984l-170.9457,127.80984l-170.94552,-127.80984l-170.14684,127.80984"/>
            <path fill="#2cc46c"
                  d="m875.49735,168.54924l-23.16561,-14.37862l-31.15353,19.17137l-91.06452,-25.5619l111.83367,-110.23607l33.54999,131.00522m-497.65962,65.50239l-36.74537,21.56801l-72.69183,-43.13585l125.4136,-25.56187l-15.9764,47.12971m544.78955,-184.52546l92.66207,31.15375l-72.69183,64.7037l-19.97024,-95.85745m-297.15799,-17.57377l-22.36671,65.5026l-57.5143,-65.5026l79.88101,0m-307.54237,103.84553l-19.97024,-95.85745l92.66207,31.15375l-72.69183,64.7037"/>
            <path fill="#2ecc71"
                  d="m317.92692,135.79793l72.69183,-64.7037l-92.66207,-31.15375l19.97024,95.85745m503.25129,37.54406l-139.792,82.27765l-12.78106,-7.18939l23.9643,-42.337l-93.46093,0l-87.07046,-51.92263l-134.20033,79.88101l15.9764,-47.12971l-125.4136,25.56187l-98.25369,-58.31317l-135.79793,81.47878l-34.34891,-38.3431l0,-165.35391l72.69183,0l75.0883,131.005l75.88699,-131.005l321.92116,0l57.5143,65.50261l22.36671,-65.50261l397.00946,0l0,164.55517l-8.787,-9.58564l-16.77509,53.52024l-121.41931,-71.89292l-33.54999,-131.00522l-111.83367,110.23606l91.06452,25.56191m101.44907,-123.81582l19.97024,95.85745l72.69183,-64.7037l-92.66207,-31.15375"/>
            <path fill="#2abb67"
                  d="m668.61,248.43l-69.497,-42.337l93.461,0l-23.964,42.337m-634.26,-12.781l-34.349,19.97l0,-58.313l34.349,38.343m988.13,19.97l-25.562,-15.177l16.775,-53.52l8.7869,9.5856l0,59.112"/>
            <path fill="#31d978"
                  d="m1022.47875,31.9524l-1022.47875,0l0,-31.9524l1022.47875,0l0,31.9524"/>
            <path fill="#30d475"
                  d="m223.66712,31.9524l-75.88699,131.005l-75.0883,-131.005l150.97529,0"/>
        </g>
        <path id="grass-shadow" fill-opacity=".1"
              d="m0,321.12208l170.14684,-127.80985l170.94552,127.80985l170.9457,-127.80985l169.34815,127.80985l170.94553,-127.80985l170.14701,127.80985l0,95.05871l-170.14701,-167.75054l-170.94553,167.75054l-169.34815,-167.75054l-170.9457,167.75054l-170.94552,-167.75054l-170.14684,167.75054l0,-95.05871"/>
    </g>
    <g id="coal">
        <path id="coal-top" fill="#666"
              d="m250.44501,418.9107l-14.37862,-30.35484l82.2777,-11.18346l-51.12399,76.68607l-16.77509,-35.14777m17.57382,142.18846l99.85147,-79.08236l43.13586,115.82769l-142.98733,-36.74533m171.74457,-61.50854l0,-148.57899l284.37692,93.46094l-284.37692,55.11805m-32.75131,230.85647l-2.39646,-23.1654l148.57899,-63.90505l87.07045,99.05261l-233.25298,-11.98216m-125.41337,63.90501l-0.79887,-2.39647l-13.57975,-31.1537l70.29536,-6.39053l20.76915,46.33123l-76.68589,-6.39053m452.92598,-297.15795l54.31937,-47.12975l27.95833,64.7037l-82.2777,-17.57395m-67.10016,189.31839l30.35501,-79.08236l105.44314,7.18922l-11.98237,31.1537l-11.18325,27.95838l-112.63253,12.78106"/>
        <path id="coal-shadow" fill-opacity=".1"
              d="m344.70486,405.33095l5.59162,-0.79887l-11.98215,70.29532l-71.09423,11.18347l-31.15371,-65.50261l14.37862,-1.59756l16.77509,35.14777l71.09423,-11.18346l6.39053,-37.54406m57.5143,199.70276l8.787,24.76322l-95.85741,75.88716l-103.04667,-68.69794l22.36675,-16.77491l80.67992,53.52024l87.07041,-68.69777m303.54848,-134.20033l18.37268,5.5918l-108.63846,148.57882l-175.73846,-56.71561l0,-31.95244l175.73846,56.71561l90.26578,-122.21818m-66.30148,302.74957l19.97029,23.16561l-239.64329,103.04667l-15.17753,-160.56114l3.1952,-0.79887l11.98233,129.40758l219.673,-94.25985m-357.86744,20.76915l31.15353,73.49069l43.93476,-38.3431l10.3846,22.36671l-54.31936,47.92883l-45.53215,-107.04069l13.57975,-0.79891l0.79886,2.39647m539.99644,-235.6494l12.78107,30.35484l-71.89297,6.39048l-27.95855,-66.3013l10.3846,-7.98826l17.57395,42.33717l59.1119,-4.79293m-30.35483,87.07041l11.98237,0.7989l-63.10615,158.16469l-80.68009,-67.10021l9.58586,-23.96431l71.09423,59.1119l39.94053,-99.0526l11.18324,-27.95838"/>
        <path id="coal-bottom" fill="#565656"
              d="m318.34409,377.3724l31.95239,-4.79276l-5.59162,32.75131l-6.39053,37.54406l-71.09423,11.18346l51.12399,-76.68607m-83.87525,242.83884l-22.36675,-15.17753l55.91674,-43.93454l142.98733,36.74532l-8.78699,7.18923l-87.07041,68.69776l-80.67992,-53.52024m489.67149,-175.73867l-18.37269,26.36081l-90.26578,122.21818l-175.73846,-56.71561l0,-36.74533l284.37693,-55.11805m-316.3295,293.96265l-0.79873,-7.98813l233.25298,11.98216l19.17137,22.36675l-19.97028,8.78695l-219.67301,94.25985l-11.98233,-129.40758m-51.12381,91.06448l-43.93477,38.3431l-31.15353,-73.4907l76.6859,6.39053l8.78699,19.17138l-10.38459,9.58569m460.11538,-314.73159l17.57382,42.33699l-12.78106,1.5976l-59.11191,4.79293l-17.57395,-42.33717l-10.38459,-23.9643l82.27769,17.57395m-147.78009,198.90407l-9.58586,-7.98809l7.98809,-19.17155l112.63253,-12.78106l-39.94052,99.0526l-71.09424,-59.1119"/>
    </g>
</svg>
