<svg xmlns="http://www.w3.org/2000/svg" width="1024" height="1024">
    <g id="dirt">
        <rect id="dirt-background" fill="#bb8044" width="1024" height="1024"/>
        <g id="dirt-particle">
            <path fill="#b17940"
                  d="M713.338605 473.695094l55.916747 67.100209-67.8989 55.118012-55.118012-67.100166 67.100166-55.118055M772.450684 0L762.06613 91.863164 609.49307 74.289388 618.280067 0h154.170616M.000001 147.780085h.798735l28.757239 121.419312L.000001 276.38862V147.780085m618.280066 874.698618l8.786997-78.283628 152.572842 17.57395-6.390531 60.709678H618.280067m404.198681-746.090083l-91.863382 20.769151-27.958373-120.620447 119.821755-28.757239V276.38862M563.960921 576.741765l-118.224155 37.544236-38.342927-119.022846 119.022846-37.544236 37.544236 119.022846M173.341994 307.542324l157.365991 40.739392-40.739392 158.164682-157.365991-41.538084 40.739392-157.365991M849.935446 482.48209l81.478611 31.153704-30.354839 82.27752-82.277476-31.952396 31.153704-81.478828M682.983767 706.948072l118.224155-37.544062 37.544062 118.223981-118.224155 37.544236-37.544062-118.224155m199.70281 83.87525l87.070625 8.786997-9.585906 87.070451-86.271542-8.786997 8.786823-87.070451"/>
            <path fill="#cd8c4a"
                  d="M741.296978 186.123012l-50.325081 70.295366-71.094231-50.325124 51.123946-71.094231 70.295366 51.12399M127.809843 27.159465l35.147596 78.283628-79.082319 35.946461-35.946505-79.082319 79.881228-35.14777m47.12975 535.203855l69.496631 50.325081-50.325081 70.295366-70.295322-51.12399 51.123772-69.496457m-47.12975 419.375991l-85.472851 13.579754-13.579928-85.472894 85.472851-13.57971 13.579928 85.472851m385.825822-209.288628l78.283628-35.946505 35.946461 79.881054-79.082319 35.14777-35.14777-79.082319"/>
            <path fill="#9f6c39"
                  d="M418.577126 147.780085l-101.44907 110.236067-110.23585-101.44907L308.341233 46.331015l110.235893 101.44907m15.97622 774.847148l-154.969351-34.348905L313.9329 731.711246l155.768173 35.14777-35.147726 155.768217m430.55941-542.393078l-59.910769 63.106143-63.106143-59.910812 59.910812-63.1061 63.1061 59.910769"/>
            <path fill="#c48647"
                  d="M0 549.582257l32.751304-3.994022 10.38438 86.271542L0 637.451399v-87.869142m1022.478747 87.869142l-43.135858 4.792975-10.384597-86.271586 53.520455-6.390531v87.869142M498.458354 297.956636l86.271542 8.786997-8.786823 86.271542-86.271716-8.786953 8.786997-86.271586m-262.809083 500.85482l-73.490523 24.763173-24.763216-73.490697 73.490697-25.561908 24.763042 74.289432"/>
        </g>
    </g>
    <g id="grass">
        <path id="grass-background" fill="#2ecc71" d="
            M 0,0       l 0,320
            l 171,-130  l 171,130
            l 171,-120  l 171,120
            l 170,-120  l 170 130
            l 0,-310
        "/>
        <g id="grass-shadow">
            <path id="grass-shadow-1" fill-opacity=".12" d="
                M 0,256
                l 171,-100  l 171,100
                l 171,-100  l 171,100
                l 170,-100  l 170,100
                l 0,75
                l -170,-130  l -170,120
                l -171,-120  l -171,120
                l -171,-130  l -171,130
            "/>
            <path id="grass-shadow-2" fill-opacity="0.11" d="
                M 0,320
                l 171,-130  l 171,130
                l 171,-120  l 171,120
                l 170,-120  l 170,130
                l 0,85
                l -170,-170 l -170,170
                l -171,-170 l -171,170
                l -171,-170 l -171,170
            "/>
        </g>
        <g id="grass-particle">
            <g id="grass-particle-1" fill-opacity="0.04">
                <path d="M377.837734 234.051627l-36.74537 21.568016-72.691832-43.135858 125.413595-25.561864-15.976394 47.129706"/>
                <path d="M317.92692 135.797932l-19.970242-95.857448 92.662073 31.153748-72.691832 64.7037"/>
                <path d="M625.469287 31.952396L603.10258 97.455005l-57.514303-65.502609h79.881011"/>
                <path d="M875.497353 168.549236l-23.165616-14.378619-31.15353 19.171376-91.064517-25.561908L841.947357 37.544018l33.549996 131.005218"/>
                <path d="M922.627276 49.526172l92.662073 31.153748-72.691832 64.7037-19.970242-95.857448"/>
            </g>
            <g id="grass-particle-2" fill-opacity="0.08">
                <path d="M34.348905 235.649401L0 255.619643 L0 197.3063 l34.348905 38.343101"/>
                <path d="M668.605147 248.430246l-69.496631-42.336993h93.460939l-23.964308 42.336993"/>
                <path d="M1022.478747 255.619643l-25.562082-15.177485 16.775085-53.520238 8.786997 9.585645v59.112078"/>
            </g>
            <path id="grass-particle-3" fill="#30d475"
                  d="M223.667117 31.952396l-75.886988 131.005-75.088297-131.005h150.975286"/>
        </g>
        <path id="grass-top" fill="#31d978"
              d="M1022.478747 31.952396H-.000001V0h1022.478747v31.952396"/>
    </g>
    <g id="coal">
        <path id="coal-top" fill="#666"
              d="M250.445011 418.910701l-14.378619-30.354839 82.277694-11.183462-51.12399 76.686071-16.775085-35.14777m17.57382 142.188463l99.85147-79.082363 43.135858 115.82769-142.987328-36.745327m171.744567-61.508543V351.011627l284.376925 93.460939-284.376925 55.118055m-32.751304 230.85647l-2.396466-23.165399 148.578994-63.905052 87.070451 99.052605-233.252979-11.982154M281.598716 794.3521l-.798865-2.396466-13.579754-31.153704 70.295366-6.390531 20.769151 46.331232-76.685897-6.390531m452.925987-297.157945l54.319364-47.12975 27.95833 64.7037-82.277694-17.57395m-67.100166 189.318386l30.355013-79.082363 105.443136 7.189223-11.982371 31.153704-11.183245 27.958373-112.632533 12.781063"/>
        <path id="coal-shadow" fill-opacity=".1"
              d="M344.704859 405.330947l5.591622-.798865-11.982154 70.295322-71.094231 11.183462-31.153704-65.502609 14.378619-1.597557 16.775085 35.14777 71.094231-11.183462 6.390531-37.544062m57.514303 199.702766l8.786997 24.763216-95.857404 75.887162-103.04667-68.69794 22.366751-16.774911 80.67992 53.520238 87.070407-68.697766M705.767638 470.83338l18.372685 5.591797-108.638467 148.57882-175.738458-56.715612v-31.952439l175.738458 56.715612 90.265782-122.218177m-66.301474 302.749567l19.970285 23.165616-239.643293 103.04667-15.177528-160.561148 3.1952-.798865 11.982328 129.407574 219.673008-94.259848m-357.867448 20.769151l31.15353 73.490697 43.934767-38.343101 10.384597 22.366707-54.319364 47.928833-45.53215-107.040693 13.579754-.798909.798865 2.396466m539.996438-235.649401l12.781063 30.354839-71.892966 6.390488-27.958547-66.3013 10.384597-7.988262 17.57395 42.337167 59.111904-4.792931m-30.354839 87.070407l11.982371.798909-63.106143 158.164682-80.680094-67.100209 9.585862-23.964308 71.094231 59.111904 39.940527-99.052605 11.183245-27.958373"/>
        <path id="coal-bottom" fill="#565656"
              d="M318.344086 377.3724l31.952396-4.792757-5.591622 32.751304-6.390531 37.544062-71.094231 11.183462 51.12399-76.686071m-83.87525 242.838842l-22.366751-15.177528 55.916747-43.934549 142.987328 36.745327-8.786997 7.189223-87.070407 68.697766-80.67992-53.520238m489.671488-175.738676l-18.372685 26.360817-90.265782 122.218177-175.738458-56.715612v-36.745327l284.376925-55.118055M407.810831 738.435224l-.798735-7.988132 233.252979 11.982154 19.171376 22.366751-19.970285 8.786953-219.673008 94.259848-11.982328-129.407574m-51.123815 91.064473l-43.934767 38.343101-31.15353-73.490697 76.685897 6.390531 8.786997 19.171376-10.384597 9.585688m460.115384-314.73159l17.57382 42.336993-12.781063 1.5976-59.111904 4.792931-17.57395-42.337167-10.384597-23.964308 82.277694 17.57395M669.022314 713.67218l-9.585862-7.988088 7.988088-19.17155 112.632533-12.781063-39.940527 99.052605-71.094231-59.111904"/>
    </g>
</svg>
