<svg xmlns="http://www.w3.org/2000/svg" width="1024" height="1024" viewBox="0 0 1024 1024">
	<g id="dirt">
		<!--
			[Dirt Color Info]
				"dirt-background"	#bb8044 = hsv(30°, 64%, 73%)
				"dirt-particle-1"	#9f6c39 = hsv(30°, 64%, 62%)
				"dirt-particle-2"	#b17940 = hsv(30°, 64%, 69%)
				"dirt-particle-3"	#c48647 = hsv(30°, 64%, 77%)
				"dirt-particle-4"	#cd8c4a = hsv(30°, 64%, 80%)
		-->
		<rect id="dirt-background" fill="#bb8044" width="1024" height="1024"/>
		<g id="dirt-particle">
			<g id="dirt-particle-1" fill="#9f6c39">
				<path d="M440,920	l-155,-35	l30,-155	l155,35"/>
				<path d="M860,380	l-60,65		l-65,-60	l60,-65"/>
			</g>
			<g id="dirt-particle-2" fill="#b17940">
				<path d="M720,480	l55,70		l-70,55		l-55,-70"/>
				<path d="M620,1024	l10,-80		l150,20		l-10,60"/>
				<path d="M1024,280	l-100,20	l-30,-120	l120,-30"/>
				<path d="M570,570	l-120,40	l-40,-120	l120,-40"/>
				<path d="M175,310	l160,40		l-40,160	l-160,-40"/>
				<path d="M850,480	l80,30		l-30,80		l-80,-30"/>
				<path d="M680,710	l120,-40	l40,120		l-120,40"/>
				<path d="M880,790	l90,10		l-10,90		l-90,-10"/>
			</g>
			<g id="dirt-particle-3" fill="#c48647">
				<path d="M0,550		l30,0		l10,90		l-40,0"/>
				<path d="M1024,640	l-40,5		l-10,-90	l50,-5"/>
				<path d="M500,300	l90,10		l-10,90		l-90,-10"/>
				<path d="M240,800	l-70,20		l-20,-70	l70,-20"/>
			</g>
			<g id="dirt-particle-4" fill="#cd8c4a">
				<path d="M170,560	l70,50		l-50,70		l-70,-50"/>
				<path d="M130,980	l-90,10		l-10,-90	l90,-10"/>
				<path d="M510,770	l80,-40		l40,80		l-80,40"/>
			</g>
		</g>
	</g>
	<g id="grass">
		<!--
				[Grass Color Info]
				"grass-background"	#2ecc71 = hsv(145°, 77%, 80%)
				"grass-bottom"		#28b162 = hsv(145°, 77%, 69%)
				"grass-particle-1"	#2bbb67 = hsv(145°, 77%, 73%)
				"grass-particle-2"	#2dc46c = hsv(145°, 77%, 77%)
				"grass-particle-3"	#30d475 = hsv(145°, 77%, 83%)
				"grass-top"			#31d978 = hsv(145°, 77%, 85%)
		-->
		<path id="grass-background" fill="#2ecc71" d="M0,0		l0,320		l171,-130	l171,130	l171,-120	l171,120	l170,-120	l170,130	l0,-330"/>
		<path id="grass-bottom" fill="#28b162" d="M0,255		l171,-100	l171,100	l171,-100	l171,100	l170,-100	l170,100	l0,75		l-170,-130	l-170,120	l-171,-120	l-171,120	l-171,-130	l-171,130"/>
		<path id="grass-shadow" fill-opacity="0.1" d="M0,320	l171,-130	l171,130	l171,-120	l171,120	l170,-120	l170,130	l0,85		l-170,-170	l-170,170	l-171,-170	l-171,170	l-171,-170	l-171,170"/>
		<g id="grass-particle">
			<g id="grass-particle-1" fill="#2bbb67">
				<path d="M0,255		l0,-58		l34,38"/>
				<path d="M598,205	l94,0		l-22,42"/>
				<path d="M1024,255	l-24,-14	l15,-52		l10,10"/>
			</g>
			<g id="grass-particle-2" fill="#2dc46c">
				<path d="M342,255	l36,-21		l15,-47		l-123,26"/>
				<path d="M318,136	l-20,-96	l93,31		l-73,65"/>
				<path d="M625,32	l-20,70		l-60,-70	l80,0"/>
				<path d="M854,155	l25,15		l-37,-132	l-110,110	l90,26"/>
				<path d="M920,50	l95,30		l-75,65		l-20,-95"/>
			</g>
			<path id="grass-particle-3" fill="#30d475" d="M75 32		l75 124		l75 -124"/>
		</g>
		<path id="grass-top" fill="#31d978" d="M0,0	l0,32	l1024,0		l0,-32		l-1024,0"/>
	</g>
	<g id="coal">
		<!--
			[Coal Color Info]
				"coal-top"		#666666 = hsv(0°, 0%, 40%)
				"coal-bottom"	#565656 = hsv(0°, 0%, 34%)
		-->
		<g id="coal-shadow" fill-opacity=".1">
			<path d="M345,405	l5,0	l-10,70		l-70,10		l-30,-65	l15,-0	l15,35"/>
			<path d="M400,605	l10,25	l-95,75		l-105,-70	l20,-15"/>
			<path d="M705,465	l20,5	l-110,150	l-175,-55	l0,-30"/>
			<path d="M640,775	l20,25	l-240,105	l-15,-160	l15,0"/>
			<path d="M280,790	l40,70	l30,-30		l10,20		l-50,50 	l-50,-110"/>
			<path d="M820,555	l10,30	l-70,10		l-25,-70	l10,-10"/>
			<path d="M795,630	l10,0	l-55,160 	l-90,-60	l10,-25"/>
		</g>
		<g id="coal-particle">
			<path fill="#666666" d="M315,380	l-50,75		l-30,-65"/>
			<path fill="#565656" d="M315,380	l-50,75		l70,-10		l15,-70"/>
			<path fill="#666666" d="M270,560	l145,35		l-45,-115"/>
			<path fill="#565656" d="M270,560	l145,35		l-100,80	l-100,-70"/>
			<path fill="#666666" d="M440,500	l285,-55	l-275,-95"/>
			<path fill="#565656" d="M440,500	l285,-55	l-110,145	l-175,-55"/>
			<path fill="#666666" d="M405,730	l240,10		l-90,-100	l-152,70"/>
			<path fill="#565656" d="M405,730	l240,10		l20,20		l-245,110"/>
			<path fill="#666666" d="M280,795	l75,5		l-20,-45 	l-70,5"/>
			<path fill="#565656" d="M280,795	l75,5		l10,20		l-55,50"/>
			<path fill="#666666" d="M735,500	l85,15		l-30,-65"/>
			<path fill="#565656" d="M735,500	l85,15		l20,45		l-80,5"/>
			<path fill="#666666" d="M665,685	l115,-10	l20,-60		l-105,-10"/>
			<path fill="#565656" d="M665,685	l115,-10	l-35,95		l-90,-60"/>
		</g>
	</g>
</svg>