<svg xmlns="http://www.w3.org/2000/svg" width="1024" height="1024">
    <g id="dirt">
        <!--
        [Dirt Color Info]

        "dirt-background" #bb8044 = hsv(30°, 64%, 73%)

        "dirt-particle-1" #9f6c39 = hsv(30°, 64%, 62%)
        "dirt-particle-2" #b17940 = hsv(30°, 64%, 69%)
        "dirt-particle-3" #c48647 = hsv(30°, 64%, 77%)
        "dirt-particle-4" #cd8c4a = hsv(30°, 64%, 80%)
        -->
        <rect id="dirt-background" fill="#bb8044" width="1024" height="1024"/>
        <g id="dirt-particle">
            <g id="dirt-particle-1" fill="#9f6c39">
                <path d="
                    M 440,920
                    l -155,-35
                    L 315,730
                    l 155,35
                "/>
                <path d="
                    M 860,380
                    l -60,65
                    l -65,-60
                    l 60,-65
                "/>
            </g>
            <g id="dirt-particle-2" fill="#b17940">
                <path d="
                    M 720,480
                    l 55,70
                    l -70,55
                    l -55,-70
                "/>
                <path d="
                    M 620,1024
                    l 10,-80
                    l 150,20
                    l -10,60
                "/>
                <path d="
                    M 1024,280
                    l -100,20
                    l -30,-120
                    l 120,-30
                "/>
                <path d="
                    M 570,570
                    l -120,40
                    l -40,-120
                    l 120,-40
                "/>
                <path d="
                    M 175,310
                    l 160,40
                    l -40,160
                    l -160,-40
                "/>
                <path d="
                    M 850,480
                    l 80,30
                    l -30,80
                    l -80,-30
                "/>
                <path d="
                    M 680,710
                    l 120,-40
                    l 40,120
                    l -120,40
                "/>
                <path d="
                    M 880,790
                    l 90,10
                    l -10,90
                    l -90,-10
                "/>
            </g>
            <g id="dirt-particle-3" fill="#c48647">
                <path d="
                    M 0,550
                    l 30,0
                    l 10,90
                    l -40,0
                "/>
                <path d="
                    M 1024,640
                    l -40,5
                    l -10,-90
                    l 50,-5
                "/>
                <path d="
                    M 500,300
                    l 90,10
                    l -10,90
                    l -90,-10
                "/>
                <path d="
                    M 240,800
                    l -70,20
                    l -20,-70
                    l 70,-20
                "/>
            </g>
            <g id="dirt-particle-4" fill="#cd8c4a">
                <path d="
                    M 170,560
                    l 70,50
                    l -50,70
                    l -70,-50
                "/>
                <path d="
                    M 130,980
                    l -90,10
                    l -10,-90
                    l 90,-10
                "/>
                <path d="
                    M 510,770
                    l 80,-40
                    l 40,80
                    l -80,40
                "/>
            </g>
        </g>
    </g>
    <g id="grass">
        <!--
        [Grass Color Info]
        "grass-background" #2ecc71 = hsv(145°, 77%, 80%)
        "grass-bottom"     #28b162 = hsv(145°, 77%, 69%)
        "grass-particle-1" #2bbb67 = hsv(145°, 77%, 73%)
        "grass-particle-2" #2dc46c = hsv(145°, 77%, 77%)
        "grass-particle-3" #30d475 = hsv(145°, 77%, 83%)
        "grass-top"        #31d978 = hsv(145°, 77%, 85%)
        -->
        <path id="grass-background" fill="#2ecc71" d="
            M 0,0       l 0,320
            l 171,-130  l 171,130
            l 171,-120  l 171,120
            l 170,-120  l 170 130
            l 0,-330
        "/>
        <path id="grass-bottom" fill="#28b162" d="
            M 0,255
            l 171,-100  l 171,100
            l 171,-100  l 171,100
            l 170,-100  l 170,100
            l 0,75
            l -170,-130  l -170,120
            l -171,-120  l -171,120
            l -171,-130  l -171,130
        "/>
        <path id="grass-shadow" fill-opacity="0.1" d="
            M 0,320
            l 171,-130  l 171,130
            l 171,-120  l 171,120
            l 170,-120  l 170,130
            l 0,85
            l -170,-170 l -170,170
            l -171,-170 l -171,170
            l -171,-170 l -171,170
        "/>
        <g id="grass-particle">
            <g id="grass-particle-1" fill="#2bbb67">
                <path d="M 0,255     l 0,-58    l 34,38          "/>
                <path d="M 598,205   l 94,0     l -22,42         "/>
                <path d="M 1024,255  l -24,-14  l 15,-52  l 10,10"/>
            </g>
            <g id="grass-particle-2" fill="#2dc46c">
                <path d="M 342,255  l 36,-21   l 15,-47    l -123,26          "/>
                <path d="M 318,136  l -20,-96  l 93,31     l -73,65           "/>
                <path d="M 625,32   l -20,70   l -60,-70   l 80,0             "/>
                <path d="M 854,155  l 25,15    l -37,-132  l -110,110  l 90,26"/>
                <path d="M 920,50   l 95,30    l -75,65    l -20,-95          "/>
            </g>
            <path id="grass-particle-3" fill="#30d475" d="M 75 32  l 75 124  l 75 -124"/>
        </g>
        <path id="grass-top" fill="#31d978" d="
            M 0,0  l 0,32   l 1024,0
                   l 0,-32  l -1024,0
        "/>
    </g>
    <g id="coal">
        <!--
        [Coal Color Info]
        "coal-top"    #666666 = hsv(0°, 0%, 40%)
        "coal-bottom" #565656 = hsv(0°, 0%, 34%)
        -->
        <g id="coal-shadow" fill-opacity=".1">
            <path d="
                M 344.704859,405.330947
                l 5.591622,-0.798865
                l -11.982154,70.295322
                l -71.094231,11.183462
                l -31.153704,-65.502609
                l 14.378619,-1.597557
                l 16.775085,35.14777
                l 71.094231,-11.183462
                l 6.390531,-37.544062
            "/>
            <path d="
                M 402.219161,605.033712
                l 8.786997,24.763216
                l -95.857404,75.887162
                l -103.04667,-68.69794
                l 22.366751,-16.774911
                l 80.67992,53.520238
                l 87.070407,-68.697766
            "/>
            <path d="
                M 705.767638,470.83338
                l 18.372685,5.591797
                l -108.638467,148.57882
                l -175.738458,-56.715612
                v -31.952439
                l 175.738458,56.715612
                l 90.265782,-122.218177
            "/>
            <path d="
                M 639.466164,773.582948
                l 19.970285,23.165616
                l -239.643293,103.04667
                l -15.177528,-160.561148
                l 3.1952, -0.798865
                l 11.982328,129.407574
                l 219.673008,-94.259848
            "/>
            <path d="
                M 281.598716,794.352098
                l 31.15353,73.490697
                l 43.934767,-38.343101
                l 10.384597,22.366707
                l -54.319364,47.928833
                l -45.53215,-107.040693
                l 13.579754,-0.798909
                l 0.798865,2.396466
            "/>
            <path d="
                M 821.595153,558.702697
                l 12.781063,30.354839
                l -71.892966,6.390488
                l -27.958547,-66.3013
                l 10.384597,-7.988262
                l 17.57395,42.337167
                l 59.111904,-4.792931
            "/>
            <path d="
                M 791.240315,645.773105
                l 11.982371,0.798909
                l -63.106143,158.164682
                l -80.680094,-67.100209
                l 9.585862,-23.964308
                l 71.094231,59.111904
                l 39.940527,-99.052605
                l 11.183245,-27.958373
            "/>
        </g>
        <g id="coal-top" fill="#666666">
            <path d="
                M 250.445011,418.910701
                l -14.378619,-30.354839
                l 82.2776940,-11.183462
                l -51.123990,76.686071
                l -16.775085,-35.14777
            "/>
            <path d="
                M 268.018829,561.099182
                l 99.85147000,-79.082363
                l 43.13585800,115.82769
                l -142.987328,-36.745327
            "/>
            <path d="
                M 439.763397,499.590637
                V 351.011627
                l 284.376925,93.460939
                l -284.376925,55.118055
            "/>
            <path d="
                M 407.012084,730.447082
                l -2.396466,-23.165399
                l 148.578994,-63.905052
                l 87.070451,99.052605
                l -233.252979,-11.982154
            "/>
            <path d="
                M 281.598716,794.3521
                l -.798865,-2.396466
                l -13.579754,-31.153704
                l 70.295366,-6.390531
                l 20.769151,46.331232
                l -76.685897,-6.390531
            "/>
            <path d="
                M 734.52478,497.194214
                l 54.319364,-47.12975
                l 27.95833,64.7037
                l -82.277694,-17.57395
            "/>
            <path d="
                M 667.424561,686.512573
                l 30.355013,-79.082363
                l 105.443136,7.189223
                l -11.982371,31.153704
                l -11.183245,27.958373
                l -112.632533,12.781063
            "/>
        </g>
        <g id="coal-bottom" fill="#565656">
            <path d="
                M 318.344086,377.3724
                l 31.952396,-4.792757
                l -5.591622,32.751304
                l -6.390531,37.544062
                l -71.094231,11.183462
                l 51.12399,-76.686071
            "/>
            <path d="
                M 234.468842,620.211304
                l -22.366751,-15.177528
                l 55.916747,-43.934549
                l 142.987328,36.745327
                l -8.786997,7.189223
                l -87.070407,68.697766
                l -80.67992,-53.520238
            "/>
            <path d="
                M 724.140381,444.472504
                l -18.372685,26.360817
                l -90.265782,122.218177
                l -175.738458,-56.715612
                v -36.745327
                l 284.376925,-55.118055
            "/>
            <path d="
                M 407.810831,738.435224
                l -.798735,-7.988132
                l 233.252979,11.982154
                l 19.171376,22.366751
                l -19.970285,8.786953
                l -219.673008,94.259848
                l -11.982328,-129.407574
            "/>
            <path d="
                M 356.687042,829.499634
                l -43.934767,38.343101
                l -31.15353,-73.490697
                l 76.685897,6.390531
                l 8.786997,19.171376
                l -10.384597,9.585688
            "/>
            <path d="
                M 816.802368,514.767944
                l 17.57382,42.336993
                l -12.781063,1.5976
                l -59.111904,4.792931
                l -17.57395,-42.337167
                l -10.384597,-23.964308
                l 82.277694,17.57395
            "/>
            <path d="
                M 669.022314,713.67218
                l -9.585862,-7.988088
                l 7.988088,-19.17155
                l 112.632533,-12.781063
                l -39.940527,99.052605
                l -71.094231,-59.111904
            "/>
        </g>
    </g>
</svg>
