<svg xmlns="http://www.w3.org/2000/svg" width="1024" height="1024">
    <g id="dirt">
        <!--
        [Dirt Color Info]

        "dirt-background" #bb8044 = hsv(30°, 64%, 73%)

        "dirt-particle-1" #9f6c39 = hsv(30°, 64%, 62%)
        "dirt-particle-2" #b17940 = hsv(30°, 64%, 69%)
        "dirt-particle-3" #c48647 = hsv(30°, 64%, 77%)
        "dirt-particle-4" #cd8c4a = hsv(30°, 64%, 80%)
        -->
        <rect id="dirt-background" fill="#bb8044" width="1024" height="1024"/>
        <g id="dirt-particle">
            <g id="dirt-particle-1" fill="#9f6c39">
                <path d="
                    M 434.553346,922.627233
                    l -154.969351,-34.348905
                    L 313.9329,731.711246
                    l 155.768173,35.14777
                    l -35.147726,155.768217

                    m 430.55941,-542.393078
                    l -59.910769,63.106143
                    l -63.106143,-59.910812
                    l 59.910812,-63.1061
                    l 63.1061,59.910769
                "/>
            </g>
            <g id="dirt-particle-2" fill="#b17940">
                <path d="
                    M 713.338605,473.695094
                    l 55.916747,67.100209
                    l -67.8989,55.118012
                    l -55.118012,-67.100166
                    l 67.100166,-55.118055
                "/>
                <path d="
                    M 618.280067,1022.478703
                    l 8.786997,-78.283628
                    l 152.572842,17.57395
                    l -6.390531,60.709678
                    H 618.280067

                    m 404.198681,-746.090083
                    l -91.863382,20.769151
                    l -27.958373,-120.620447
                    l 119.821755,-28.757239
                    V 276.38862
                "/>
                <path d="
                    M 563.960921,576.741765
                    l -118.224155,37.544236
                    l -38.342927,-119.022846
                    l 119.022846,-37.544236
                    l 37.544236,119.022846
                "/>
                <path d="
                    M 173.341994,307.542324
                    l 157.365991,40.739392
                    l -40.739392,158.164682
                    l -157.365991,-41.538084
                    l 40.739392,-157.365991
                "/>
                <path d="
                    M 849.935446,482.48209
                    l 81.478611,31.153704
                    l -30.354839,82.27752
                    l -82.277476,-31.952396
                    l 31.153704,-81.478828
                "/>
                <path d="
                    M 682.983767,706.948072
                    l 118.224155,-37.544062
                    l 37.544062,118.223981
                    l -118.224155,37.544236
                    l -37.544062,-118.224155

                    m 199.70281,83.87525
                    l 87.070625,8.786997
                    l -9.585906,87.070451
                    l -86.271542,-8.786997
                    l 8.786823,-87.070451
                "/>
            </g>
            <g id="dirt-particle-3" fill="#c48647">
                <path d="
                    M 0,549.582257
                    l 32.751304,-3.994022
                    l 10.38438,86.271542
                    L 0,637.451399
                    v -87.869142

                    m 1022.478747,87.869142
                    l -43.135858,4.792975
                    l -10.384597,-86.271586
                    l 53.520455,-6.390531
                    v 87.869142
                "/>
                <path d="
                    M 498.458354,297.956636
                    l 86.271542,8.786997
                    l -8.786823,86.271542
                    l -86.271716,-8.786953
                    l 8.786997,-86.271586

                    m -262.809083,500.85482
                    l -73.490523,24.763173
                    l -24.763216,-73.490697
                    l 73.490697,-25.561908
                    l 24.763042,74.289432
                "/>
            </g>
            <g id="dirt-particle-4" fill="#cd8c4a">
                <path d="
                    M 174.939593,562.36332
                    l 69.496631,50.325081
                    l -50.325081,70.295366
                    l -70.295322,-51.12399
                    l 51.123772,-69.496457

                    m -47.12975,419.375991
                    l -85.472851,13.579754
                    l -13.579928,-85.472894
                    l 85.472851,-13.57971
                    l 13.579928,85.472851

                    m 385.825822,-209.288628
                    l 78.283628,-35.946505
                    l 35.946461,79.881054
                    l -79.082319,35.14777
                    l -35.14777,-79.082319
                "/>
            </g>
        </g>
    </g>
    <g id="grass">
        <!--
        [Grass Color Info]
        "grass-background" #2ecc71 = hsv(145°, 77%, 80%)
        "grass-bottom"     #28b162 = hsv(145°, 77%, 69%)
        "grass-particle-1" #2bbb67 = hsv(145°, 77%, 73%)
        "grass-particle-2" #2dc46c = hsv(145°, 77%, 77%)
        "grass-particle-3" #30d475 = hsv(145°, 77%, 83%)
        "grass-top"        #31d978 = hsv(145°, 77%, 85%)
        -->
        <path id="grass-background" fill="#2ecc71" d="
            M 0,0       l 0,320
            l 171,-130  l 171,130
            l 171,-120  l 171,120
            l 170,-120  l 170 130
            l 0,-330
        "/>
        <path id="grass-bottom" fill="#28b162" d="
            M 0,255
            l 171,-100  l 171,100
            l 171,-100  l 171,100
            l 170,-100  l 170,100
            l 0,75
            l -170,-130  l -170,120
            l -171,-120  l -171,120
            l -171,-130  l -171,130
        "/>
        <path id="grass-shadow" fill-opacity="0.1" d="
            M 0,320
            l 171,-130  l 171,130
            l 171,-120  l 171,120
            l 170,-120  l 170,130
            l 0,85
            l -170,-170 l -170,170
            l -171,-170 l -171,170
            l -171,-170 l -171,170
        "/>
        <g id="grass-particle">
            <g id="grass-particle-1" fill="#2bbb67">
                <path d="M 0,255     l 0,-58    l 34,38          "/>
                <path d="M 598,205   l 94,0     l -22,42         "/>
                <path d="M 1024,255  l -24,-14  l 15,-52  l 10,10"/>
            </g>
            <g id="grass-particle-2" fill="#2dc46c">
                <path d="M 342,255  l 36,-21   l 15,-47    l -123,26          "/>
                <path d="M 318,136  l -20,-96  l 93,31     l -73,65           "/>
                <path d="M 625,32   l -20,70   l -60,-70   l 80,0             "/>
                <path d="M 854,155  l 25,15    l -37,-132  l -110,110  l 90,26"/>
                <path d="M 920,50   l 95,30    l -75,65    l -20,-95          "/>
            </g>
            <path id="grass-particle-3" fill="#30d475" d="M 75 32  l 75 124  l 75 -124"/>
        </g>
        <path id="grass-top" fill="#31d978" d="
            M 0,0  l 0,32   l 1024,0
                   l 0,-32  l -1024,0
        "/>
    </g>
    <g id="coal">
        <!--
        [Coal Color Info]
        "coal-top"    #666666 = hsv(0°, 0%, 40%)
        "coal-bottom" #565656 = hsv(0°, 0%, 34%)
        -->
        <g id="coal-shadow" fill-opacity=".1">
            <path d="
                M 344.704859,405.330947
                l 5.591622,-.798865
                l -11.982154,70.295322
                l -71.094231,11.183462
                l -31.153704,-65.502609
                l 14.378619,-1.597557
                l 16.775085,35.14777
                l 71.094231,-11.183462
                l 6.390531,-37.544062

                m 57.514303,199.702766
                l 8.786997,24.763216
                l -95.857404,75.887162
                l -103.04667,-68.69794
                l 22.366751,-16.774911
                l 80.67992,53.520238
                l 87.070407,-68.697766
            "/>
            <path d="
                M 705.767638,470.83338
                l 18.372685,5.591797
                l -108.638467,148.57882
                l -175.738458,-56.715612
                v -31.952439
                l 175.738458,56.715612
                l 90.265782,-122.218177

                m -66.301474,302.749567
                l 19.970285,23.165616
                l -239.643293,103.04667
                l -15.177528,-160.561148
                l 3.1952, -.798865
                l 11.982328,129.407574
                l 219.673008,-94.259848

                m -357.867448,20.769151
                l 31.15353,73.490697
                l 43.934767,-38.343101
                l 10.384597,22.366707
                l -54.319364,47.928833
                l -45.53215,-107.040693
                l 13.579754,-0.798909
                l 0.798865,2.396466

                m 539.996438,-235.649401
                l 12.781063,30.354839
                l -71.892966,6.390488
                l -27.958547,-66.3013
                l 10.384597,-7.988262
                l 17.57395,42.337167
                l 59.111904,-4.792931

                m -30.354839,87.070407
                l 11.982371,0.798909
                l -63.106143,158.164682
                l -80.680094,-67.100209
                l 9.585862,-23.964308
                l 71.094231,59.111904
                l 39.940527,-99.052605
                l 11.183245,-27.958373
            "/>
        </g>
        <g id="coal-top" fill="#666666">
            <path d="
                M 250.445011,418.910701
                l -14.378619,-30.354839
                l 82.2776940,-11.183462
                l -51.123990,76.686071
                l -16.775085,-35.14777

                m 17.57382000,142.188463
                l 99.85147000,-79.082363
                l 43.13585800,115.82769
                l -142.987328,-36.745327

                m 171.744567,-61.508543
                V 351.011627
                l 284.376925,93.460939
                l -284.376925,55.118055

                m -32.751304,230.85647
                l -2.396466,-23.165399
                l 148.578994,-63.905052
                l 87.070451,99.052605
                l -233.252979,-11.982154
            "/>
            <path d="
                M 281.598716,794.3521
                l -.798865,-2.396466
                l -13.579754,-31.153704
                l 70.295366,-6.390531
                l 20.769151,46.331232
                l -76.685897,-6.390531

                m 452.925987,-297.157945
                l 54.319364,-47.12975
                l 27.95833,64.7037
                l -82.277694,-17.57395

                m -67.100166,189.318386
                l 30.355013,-79.082363
                l 105.443136,7.189223
                l -11.982371,31.153704
                l -11.183245,27.958373
                l -112.632533,12.781063
            "/>
        </g>
        <g id="coal-bottom" fill="#565656">
            <path d="
                M 318.344086,377.3724
                l 31.952396,-4.792757
                l -5.591622,32.751304
                l -6.390531,37.544062
                l -71.094231,11.183462
                l 51.12399,-76.686071

                m -83.87525,242.838842
                l -22.366751,-15.177528
                l 55.916747,-43.934549
                l 142.987328,36.745327
                l -8.786997,7.189223
                l -87.070407,68.697766
                l -80.67992,-53.520238

                m 489.671488,-175.738676
                l -18.372685,26.360817
                l -90.265782,122.218177
                l -175.738458,-56.715612
                v -36.745327
                l 284.376925,-55.118055
            "/>
            <path d="
                M 407.810831,738.435224
                l -.798735,-7.988132
                l 233.252979,11.982154
                l 19.171376,22.366751
                l -19.970285,8.786953
                l -219.673008,94.259848
                l -11.982328,-129.407574

                m -51.123815,91.064473
                l -43.934767,38.343101
                l -31.15353,-73.490697
                l 76.685897,6.390531
                l 8.786997,19.171376
                l -10.384597,9.585688

                m 460.115384,-314.73159
                l 17.57382,42.336993
                l -12.781063,1.5976
                l -59.111904,4.792931
                l -17.57395,-42.337167
                l -10.384597,-23.964308
                l 82.277694,17.57395
            "/>
            <path d="
                M 669.022314,713.67218
                l -9.585862,-7.988088
                l 7.988088,-19.17155
                l 112.632533,-12.781063
                l -39.940527,99.052605
                l -71.094231,-59.111904
            "/>
        </g>
    </g>
</svg>
